<svg xmlns="http://www.w3.org/2000/svg" xmlns:xlink="http://www.w3.org/1999/xlink" width="500" zoomAndPan="magnify" viewBox="0 0 375 374.999991" height="500" preserveAspectRatio="xMidYMid meet" version="1.0"><defs><g/><clipPath id="7147bc7711"><path d="M 0 126.226562 L 198.75 126.226562 L 198.75 226.726562 L 0 226.726562 Z M 0 126.226562 " clip-rule="nonzero"/></clipPath></defs><g clip-path="url(#7147bc7711)"><path fill="#e0b15e" d="M 100.292969 211.257812 L 108.160156 149.394531 C 108.242188 148.910156 108.683594 148.550781 109.164062 148.628906 C 109.648438 148.710938 110.007812 149.152344 109.929688 149.632812 L 101.9375 212.382812 L 123.980469 130.242188 C 124.101562 129.761719 124.582031 129.480469 125.0625 129.601562 C 125.546875 129.722656 125.828125 130.203125 125.707031 130.683594 L 103.90625 211.980469 L 127.511719 154.289062 C 127.714844 153.847656 128.234375 153.609375 128.675781 153.808594 C 129.117188 154.007812 129.359375 154.53125 129.160156 154.972656 L 105.191406 213.507812 L 147.707031 139.839844 C 147.945312 139.394531 148.507812 139.277344 148.949219 139.515625 C 149.390625 139.757812 149.511719 140.320312 149.273438 140.761719 L 107.277344 213.625 L 145.015625 164.007812 C 145.296875 163.605469 145.898438 163.523438 146.261719 163.84375 C 146.664062 164.125 146.742188 164.730469 146.421875 165.089844 L 108.121094 215.433594 L 168.261719 155.292969 C 168.621094 154.933594 169.183594 154.933594 169.546875 155.292969 C 169.90625 155.65625 169.90625 156.21875 169.546875 156.578125 L 110.089844 216.074219 L 159.390625 177.898438 C 159.789062 177.574219 160.351562 177.65625 160.632812 178.058594 C 160.953125 178.457031 160.875 179.019531 160.472656 179.300781 L 110.449219 218.003906 L 184.117188 175.488281 C 184.5625 175.246094 185.082031 175.367188 185.363281 175.808594 C 185.605469 176.25 185.484375 176.773438 185.042969 177.054688 L 112.136719 219.167969 L 169.625 195.078125 C 170.066406 194.878906 170.628906 195.121094 170.789062 195.5625 C 170.992188 196.003906 170.75 196.566406 170.308594 196.726562 L 111.976562 221.175781 L 194.15625 199.175781 C 194.636719 199.054688 195.117188 199.335938 195.238281 199.816406 C 195.359375 200.296875 195.078125 200.78125 194.597656 200.902344 L 113.300781 222.699219 L 175.085938 214.308594 C 175.566406 214.230469 176.050781 214.589844 176.089844 215.070312 C 176.171875 215.554688 175.808594 216.035156 175.328125 216.074219 L 112.660156 224.585938 L 197.769531 224.585938 C 198.25 224.585938 198.652344 224.988281 198.652344 225.46875 C 198.652344 225.953125 198.25 226.351562 197.769531 226.351562 L 1.050781 226.351562 C 0.570312 226.351562 0.167969 225.953125 0.167969 225.46875 C 0.167969 224.988281 0.570312 224.585938 1.050781 224.585938 L 85.238281 224.585938 L 23.371094 216.679688 C 22.890625 216.597656 22.53125 216.15625 22.609375 215.675781 C 22.691406 215.191406 23.132812 214.832031 23.613281 214.910156 L 86.363281 222.902344 L 4.183594 200.859375 C 3.703125 200.738281 3.421875 200.257812 3.539062 199.777344 C 3.660156 199.292969 4.144531 199.011719 4.625 199.132812 L 85.921875 220.933594 L 28.230469 197.289062 C 27.789062 197.085938 27.546875 196.566406 27.75 196.125 C 27.949219 195.679688 28.472656 195.441406 28.914062 195.640625 L 87.445312 219.609375 L 13.777344 177.054688 C 13.335938 176.8125 13.214844 176.25 13.457031 175.808594 C 13.699219 175.367188 14.257812 175.246094 14.703125 175.488281 L 87.605469 217.5625 L 37.984375 179.824219 C 37.585938 179.542969 37.503906 178.941406 37.824219 178.578125 C 38.105469 178.175781 38.707031 178.097656 39.070312 178.417969 L 89.375 216.679688 L 29.234375 156.539062 C 28.871094 156.175781 28.871094 155.617188 29.234375 155.253906 C 29.59375 154.894531 30.15625 154.894531 30.519531 155.253906 L 90.054688 214.792969 L 51.875 165.492188 C 51.554688 165.089844 51.636719 164.527344 52.039062 164.246094 C 52.4375 163.925781 53 164.007812 53.28125 164.40625 L 91.984375 214.429688 L 49.46875 140.722656 C 49.226562 140.28125 49.347656 139.757812 49.789062 139.476562 C 50.230469 139.234375 50.753906 139.355469 51.035156 139.796875 L 93.105469 212.703125 L 69.019531 155.214844 C 68.820312 154.773438 69.058594 154.210938 69.5 154.050781 C 69.941406 153.847656 70.503906 154.089844 70.664062 154.53125 L 95.113281 212.863281 L 73.113281 130.683594 C 72.992188 130.203125 73.273438 129.722656 73.757812 129.601562 C 74.238281 129.480469 74.71875 129.761719 74.839844 130.242188 L 96.601562 211.539062 L 88.210938 149.753906 C 88.128906 149.273438 88.492188 148.789062 88.972656 148.75 C 89.453125 148.671875 89.9375 149.03125 89.976562 149.511719 L 98.488281 212.183594 L 98.488281 127.113281 C 98.488281 126.628906 98.886719 126.226562 99.371094 126.226562 C 99.851562 126.226562 100.253906 126.628906 100.253906 127.113281 L 100.253906 211.257812 Z M 100.292969 211.257812 " fill-opacity="1" fill-rule="evenodd"/></g><g fill="#03608d" fill-opacity="1"><g transform="translate(205.42582, 178.244374)"><g><path d="M 12.796875 -0.28125 L 12.9375 -0.28125 C 13.070312 -0.28125 13.195312 -0.332031 13.3125 -0.4375 C 13.425781 -0.550781 13.523438 -0.6875 13.609375 -0.84375 C 13.703125 -1.007812 13.765625 -1.179688 13.796875 -1.359375 C 13.835938 -1.546875 13.859375 -1.71875 13.859375 -1.875 L 13.859375 -9.703125 L 4.640625 -9.703125 L 4.640625 -1.875 C 4.640625 -1.71875 4.65625 -1.546875 4.6875 -1.359375 C 4.726562 -1.179688 4.785156 -1.015625 4.859375 -0.859375 C 4.941406 -0.710938 5.035156 -0.578125 5.140625 -0.453125 C 5.242188 -0.335938 5.375 -0.28125 5.53125 -0.28125 L 5.671875 -0.28125 L 5.671875 0 L 1.640625 0 L 1.640625 -0.28125 L 1.78125 -0.28125 C 1.914062 -0.28125 2.039062 -0.332031 2.15625 -0.4375 C 2.269531 -0.550781 2.367188 -0.6875 2.453125 -0.84375 C 2.546875 -1.007812 2.609375 -1.179688 2.640625 -1.359375 C 2.679688 -1.546875 2.703125 -1.71875 2.703125 -1.875 L 2.703125 -17.234375 C 2.703125 -17.367188 2.679688 -17.519531 2.640625 -17.6875 C 2.609375 -17.863281 2.550781 -18.023438 2.46875 -18.171875 C 2.394531 -18.328125 2.300781 -18.457031 2.1875 -18.5625 C 2.070312 -18.675781 1.9375 -18.734375 1.78125 -18.734375 L 1.640625 -18.734375 L 1.640625 -19.015625 L 5.671875 -19.015625 L 5.671875 -18.734375 L 5.53125 -18.734375 C 5.375 -18.734375 5.238281 -18.675781 5.125 -18.5625 C 5.007812 -18.457031 4.914062 -18.328125 4.84375 -18.171875 C 4.78125 -18.023438 4.726562 -17.863281 4.6875 -17.6875 C 4.65625 -17.519531 4.640625 -17.367188 4.640625 -17.234375 L 4.640625 -10.71875 L 13.859375 -10.71875 L 13.859375 -17.234375 C 13.859375 -17.367188 13.835938 -17.519531 13.796875 -17.6875 C 13.765625 -17.863281 13.707031 -18.023438 13.625 -18.171875 C 13.550781 -18.328125 13.457031 -18.457031 13.34375 -18.5625 C 13.226562 -18.675781 13.09375 -18.734375 12.9375 -18.734375 L 12.796875 -18.734375 L 12.796875 -19.015625 L 16.828125 -19.015625 L 16.828125 -18.734375 L 16.6875 -18.734375 C 16.53125 -18.734375 16.394531 -18.675781 16.28125 -18.5625 C 16.164062 -18.457031 16.070312 -18.328125 16 -18.171875 C 15.9375 -18.023438 15.882812 -17.863281 15.84375 -17.6875 C 15.8125 -17.519531 15.796875 -17.367188 15.796875 -17.234375 L 15.796875 -1.875 C 15.796875 -1.71875 15.816406 -1.546875 15.859375 -1.359375 C 15.910156 -1.179688 15.972656 -1.015625 16.046875 -0.859375 C 16.117188 -0.710938 16.207031 -0.578125 16.3125 -0.453125 C 16.425781 -0.335938 16.550781 -0.28125 16.6875 -0.28125 L 16.828125 -0.28125 L 16.828125 0 L 12.796875 0 Z M 12.796875 -0.28125 "/></g></g></g><g fill="#03608d" fill-opacity="1"><g transform="translate(223.342277, 178.244374)"><g><path d="M 1.703125 0 L 1.703125 -0.28125 C 1.859375 -0.28125 1.992188 -0.335938 2.109375 -0.453125 C 2.222656 -0.578125 2.316406 -0.710938 2.390625 -0.859375 C 2.460938 -1.015625 2.519531 -1.179688 2.5625 -1.359375 C 2.601562 -1.546875 2.625 -1.71875 2.625 -1.875 L 2.625 -9.859375 C 2.625 -10.179688 2.570312 -10.488281 2.46875 -10.78125 C 2.375 -11.082031 2.097656 -11.242188 1.640625 -11.265625 L 1.640625 -11.53125 L 4.53125 -12.453125 L 4.53125 -1.875 C 4.53125 -1.71875 4.546875 -1.546875 4.578125 -1.359375 C 4.617188 -1.179688 4.675781 -1.015625 4.75 -0.859375 C 4.832031 -0.710938 4.929688 -0.578125 5.046875 -0.453125 C 5.160156 -0.335938 5.296875 -0.28125 5.453125 -0.28125 L 5.453125 0 Z M 1.84375 -15.21875 C 1.84375 -15.601562 1.972656 -15.925781 2.234375 -16.1875 C 2.492188 -16.457031 2.816406 -16.59375 3.203125 -16.59375 C 3.585938 -16.59375 3.910156 -16.457031 4.171875 -16.1875 C 4.441406 -15.925781 4.578125 -15.601562 4.578125 -15.21875 C 4.578125 -14.832031 4.441406 -14.515625 4.171875 -14.265625 C 3.910156 -14.015625 3.585938 -13.890625 3.203125 -13.890625 C 2.816406 -13.890625 2.492188 -14.015625 2.234375 -14.265625 C 1.972656 -14.515625 1.84375 -14.832031 1.84375 -15.21875 Z M 1.84375 -15.21875 "/></g></g></g><g fill="#03608d" fill-opacity="1"><g transform="translate(230.57223, 178.244374)"><g><path d="M 10.453125 0 L 10.453125 -1.265625 C 10.128906 -0.898438 9.691406 -0.5625 9.140625 -0.25 C 8.597656 0.0507812 7.914062 0.203125 7.09375 0.203125 C 6.070312 0.203125 5.179688 0.0234375 4.421875 -0.328125 C 3.660156 -0.679688 3.03125 -1.144531 2.53125 -1.71875 C 2.03125 -2.300781 1.660156 -2.960938 1.421875 -3.703125 C 1.179688 -4.441406 1.0625 -5.207031 1.0625 -6 C 1.0625 -6.757812 1.1875 -7.519531 1.4375 -8.28125 C 1.6875 -9.039062 2.0625 -9.71875 2.5625 -10.3125 C 3.0625 -10.90625 3.6875 -11.382812 4.4375 -11.75 C 5.1875 -12.113281 6.050781 -12.296875 7.03125 -12.296875 C 7.6875 -12.296875 8.328125 -12.175781 8.953125 -11.9375 C 9.585938 -11.695312 10.085938 -11.382812 10.453125 -11 L 10.453125 -16.625 C 10.453125 -16.945312 10.40625 -17.253906 10.3125 -17.546875 C 10.21875 -17.835938 9.941406 -17.988281 9.484375 -18 L 9.484375 -18.296875 L 12.359375 -19.1875 L 12.359375 -1.875 C 12.359375 -1.71875 12.375 -1.546875 12.40625 -1.359375 C 12.445312 -1.179688 12.503906 -1.015625 12.578125 -0.859375 C 12.660156 -0.710938 12.757812 -0.578125 12.875 -0.453125 C 12.988281 -0.335938 13.125 -0.28125 13.28125 -0.28125 L 13.28125 0 Z M 7.296875 -0.75 C 7.691406 -0.75 8.082031 -0.828125 8.46875 -0.984375 C 8.851562 -1.148438 9.1875 -1.375 9.46875 -1.65625 C 9.757812 -1.9375 9.992188 -2.265625 10.171875 -2.640625 C 10.359375 -3.015625 10.453125 -3.421875 10.453125 -3.859375 L 10.453125 -7.8125 C 10.453125 -8.34375 10.335938 -8.820312 10.109375 -9.25 C 9.878906 -9.6875 9.59375 -10.054688 9.25 -10.359375 C 8.90625 -10.671875 8.523438 -10.910156 8.109375 -11.078125 C 7.691406 -11.242188 7.296875 -11.328125 6.921875 -11.328125 C 6.285156 -11.328125 5.71875 -11.175781 5.21875 -10.875 C 4.71875 -10.582031 4.289062 -10.195312 3.9375 -9.71875 C 3.59375 -9.25 3.332031 -8.722656 3.15625 -8.140625 C 2.988281 -7.554688 2.90625 -6.972656 2.90625 -6.390625 C 2.90625 -5.722656 3 -5.054688 3.1875 -4.390625 C 3.382812 -3.734375 3.671875 -3.140625 4.046875 -2.609375 C 4.421875 -2.078125 4.875 -1.640625 5.40625 -1.296875 C 5.945312 -0.953125 6.578125 -0.769531 7.296875 -0.75 Z M 7.296875 -0.75 "/></g></g></g><g fill="#03608d" fill-opacity="1"><g transform="translate(245.348989, 178.244374)"><g><path d="M 8.328125 -10 C 8.097656 -10.382812 7.859375 -10.625 7.609375 -10.71875 C 7.359375 -10.8125 7.066406 -10.859375 6.734375 -10.859375 C 6.523438 -10.859375 6.300781 -10.8125 6.0625 -10.71875 C 5.820312 -10.625 5.585938 -10.5 5.359375 -10.34375 C 5.128906 -10.1875 4.898438 -10.015625 4.671875 -9.828125 C 4.453125 -9.648438 4.269531 -9.484375 4.125 -9.328125 L 4.125 -1.84375 C 4.125 -1.6875 4.140625 -1.519531 4.171875 -1.34375 C 4.210938 -1.175781 4.273438 -1.007812 4.359375 -0.84375 C 4.453125 -0.6875 4.550781 -0.550781 4.65625 -0.4375 C 4.757812 -0.332031 4.890625 -0.28125 5.046875 -0.28125 L 5.046875 0 L 1.296875 0 L 1.296875 -0.28125 C 1.429688 -0.28125 1.554688 -0.332031 1.671875 -0.4375 C 1.785156 -0.550781 1.882812 -0.6875 1.96875 -0.84375 C 2.0625 -1.007812 2.125 -1.175781 2.15625 -1.34375 C 2.195312 -1.519531 2.21875 -1.6875 2.21875 -1.84375 L 2.21875 -9.875 C 2.21875 -10.144531 2.128906 -10.414062 1.953125 -10.6875 C 1.785156 -10.957031 1.535156 -11.128906 1.203125 -11.203125 L 1.203125 -11.4375 L 4.125 -12.296875 L 4.125 -10.578125 C 4.289062 -10.785156 4.46875 -10.988281 4.65625 -11.1875 C 4.851562 -11.394531 5.070312 -11.578125 5.3125 -11.734375 C 5.550781 -11.898438 5.816406 -12.035156 6.109375 -12.140625 C 6.398438 -12.242188 6.734375 -12.296875 7.109375 -12.296875 C 7.378906 -12.296875 7.722656 -12.238281 8.140625 -12.125 C 8.566406 -12.007812 8.914062 -11.882812 9.1875 -11.75 Z M 8.328125 -10 "/></g></g></g><g fill="#03608d" fill-opacity="1"><g transform="translate(255.056142, 178.244374)"><g><path d="M 8.90625 0 L 8.90625 -1.46875 L 8.765625 -1.328125 C 8.273438 -0.847656 7.71875 -0.472656 7.09375 -0.203125 C 6.476562 0.0664062 5.726562 0.203125 4.84375 0.203125 C 4.164062 0.203125 3.585938 0.125 3.109375 -0.03125 C 2.628906 -0.1875 2.234375 -0.398438 1.921875 -0.671875 C 1.617188 -0.953125 1.394531 -1.273438 1.25 -1.640625 C 1.101562 -2.003906 1.03125 -2.390625 1.03125 -2.796875 C 1.03125 -3.453125 1.207031 -4.023438 1.5625 -4.515625 C 1.925781 -5.015625 2.441406 -5.457031 3.109375 -5.84375 C 3.785156 -6.226562 4.609375 -6.578125 5.578125 -6.890625 C 6.546875 -7.210938 7.65625 -7.53125 8.90625 -7.84375 C 8.863281 -8.582031 8.707031 -9.179688 8.4375 -9.640625 C 8.164062 -10.109375 7.847656 -10.472656 7.484375 -10.734375 C 7.117188 -10.992188 6.734375 -11.164062 6.328125 -11.25 C 5.929688 -11.332031 5.585938 -11.375 5.296875 -11.375 C 4.796875 -11.375 4.359375 -11.296875 3.984375 -11.140625 C 3.609375 -10.992188 3.28125 -10.800781 3 -10.5625 C 2.726562 -10.320312 2.492188 -10.0625 2.296875 -9.78125 C 2.109375 -9.5 1.957031 -9.234375 1.84375 -8.984375 L 1.578125 -8.984375 L 1.578125 -11.09375 C 1.734375 -11.113281 1.878906 -11.160156 2.015625 -11.234375 C 2.148438 -11.316406 2.3125 -11.394531 2.5 -11.46875 C 2.789062 -11.582031 3.1875 -11.75 3.6875 -11.96875 C 4.1875 -12.1875 4.890625 -12.296875 5.796875 -12.296875 C 6.847656 -12.296875 7.695312 -12.160156 8.34375 -11.890625 C 9 -11.628906 9.503906 -11.273438 9.859375 -10.828125 C 10.222656 -10.390625 10.460938 -9.882812 10.578125 -9.3125 C 10.691406 -8.75 10.75 -8.171875 10.75 -7.578125 L 10.75 -1.875 C 10.75 -1.488281 10.832031 -1.125 11 -0.78125 C 11.175781 -0.445312 11.410156 -0.28125 11.703125 -0.28125 L 11.703125 0 Z M 8.90625 -2.734375 L 8.90625 -6.859375 L 8.609375 -6.796875 C 8.148438 -6.679688 7.585938 -6.523438 6.921875 -6.328125 C 6.265625 -6.140625 5.640625 -5.890625 5.046875 -5.578125 C 4.453125 -5.273438 3.941406 -4.910156 3.515625 -4.484375 C 3.085938 -4.066406 2.875 -3.582031 2.875 -3.03125 C 2.875 -2.414062 3.125 -1.90625 3.625 -1.5 C 4.125 -1.09375 4.78125 -0.890625 5.59375 -0.890625 C 6.226562 -0.890625 6.785156 -1.03125 7.265625 -1.3125 C 7.742188 -1.59375 8.1875 -1.953125 8.59375 -2.390625 Z M 8.90625 -2.734375 "/></g></g></g><g fill="#03608d" fill-opacity="1"><g transform="translate(268.219845, 178.244374)"><g><path d="M 10.453125 0 L 10.453125 -1.265625 C 10.128906 -0.898438 9.691406 -0.5625 9.140625 -0.25 C 8.597656 0.0507812 7.914062 0.203125 7.09375 0.203125 C 6.070312 0.203125 5.179688 0.0234375 4.421875 -0.328125 C 3.660156 -0.679688 3.03125 -1.144531 2.53125 -1.71875 C 2.03125 -2.300781 1.660156 -2.960938 1.421875 -3.703125 C 1.179688 -4.441406 1.0625 -5.207031 1.0625 -6 C 1.0625 -6.757812 1.1875 -7.519531 1.4375 -8.28125 C 1.6875 -9.039062 2.0625 -9.71875 2.5625 -10.3125 C 3.0625 -10.90625 3.6875 -11.382812 4.4375 -11.75 C 5.1875 -12.113281 6.050781 -12.296875 7.03125 -12.296875 C 7.6875 -12.296875 8.328125 -12.175781 8.953125 -11.9375 C 9.585938 -11.695312 10.085938 -11.382812 10.453125 -11 L 10.453125 -16.625 C 10.453125 -16.945312 10.40625 -17.253906 10.3125 -17.546875 C 10.21875 -17.835938 9.941406 -17.988281 9.484375 -18 L 9.484375 -18.296875 L 12.359375 -19.1875 L 12.359375 -1.875 C 12.359375 -1.71875 12.375 -1.546875 12.40625 -1.359375 C 12.445312 -1.179688 12.503906 -1.015625 12.578125 -0.859375 C 12.660156 -0.710938 12.757812 -0.578125 12.875 -0.453125 C 12.988281 -0.335938 13.125 -0.28125 13.28125 -0.28125 L 13.28125 0 Z M 7.296875 -0.75 C 7.691406 -0.75 8.082031 -0.828125 8.46875 -0.984375 C 8.851562 -1.148438 9.1875 -1.375 9.46875 -1.65625 C 9.757812 -1.9375 9.992188 -2.265625 10.171875 -2.640625 C 10.359375 -3.015625 10.453125 -3.421875 10.453125 -3.859375 L 10.453125 -7.8125 C 10.453125 -8.34375 10.335938 -8.820312 10.109375 -9.25 C 9.878906 -9.6875 9.59375 -10.054688 9.25 -10.359375 C 8.90625 -10.671875 8.523438 -10.910156 8.109375 -11.078125 C 7.691406 -11.242188 7.296875 -11.328125 6.921875 -11.328125 C 6.285156 -11.328125 5.71875 -11.175781 5.21875 -10.875 C 4.71875 -10.582031 4.289062 -10.195312 3.9375 -9.71875 C 3.59375 -9.25 3.332031 -8.722656 3.15625 -8.140625 C 2.988281 -7.554688 2.90625 -6.972656 2.90625 -6.390625 C 2.90625 -5.722656 3 -5.054688 3.1875 -4.390625 C 3.382812 -3.734375 3.671875 -3.140625 4.046875 -2.609375 C 4.421875 -2.078125 4.875 -1.640625 5.40625 -1.296875 C 5.945312 -0.953125 6.578125 -0.769531 7.296875 -0.75 Z M 7.296875 -0.75 "/></g></g></g><g fill="#03608d" fill-opacity="1"><g transform="translate(282.996604, 178.244374)"><g><path d="M 2.875 -5.8125 C 2.957031 -5.144531 3.125 -4.507812 3.375 -3.90625 C 3.625 -3.300781 3.953125 -2.765625 4.359375 -2.296875 C 4.773438 -1.835938 5.28125 -1.46875 5.875 -1.1875 C 6.46875 -0.914062 7.160156 -0.78125 7.953125 -0.78125 C 8.378906 -0.78125 8.828125 -0.84375 9.296875 -0.96875 C 9.765625 -1.09375 10.195312 -1.269531 10.59375 -1.5 C 11 -1.726562 11.359375 -2.007812 11.671875 -2.34375 C 11.992188 -2.6875 12.210938 -3.066406 12.328125 -3.484375 L 12.59375 -3.484375 L 12.59375 -1.328125 C 12.476562 -1.328125 12.347656 -1.285156 12.203125 -1.203125 C 12.054688 -1.128906 11.890625 -1.035156 11.703125 -0.921875 C 11.316406 -0.691406 10.796875 -0.445312 10.140625 -0.1875 C 9.484375 0.0703125 8.617188 0.203125 7.546875 0.203125 C 6.679688 0.203125 5.859375 0.078125 5.078125 -0.171875 C 4.304688 -0.421875 3.617188 -0.804688 3.015625 -1.328125 C 2.421875 -1.847656 1.945312 -2.507812 1.59375 -3.3125 C 1.238281 -4.125 1.0625 -5.082031 1.0625 -6.1875 C 1.0625 -6.90625 1.179688 -7.628906 1.421875 -8.359375 C 1.660156 -9.085938 2.023438 -9.742188 2.515625 -10.328125 C 3.003906 -10.910156 3.632812 -11.382812 4.40625 -11.75 C 5.175781 -12.113281 6.097656 -12.296875 7.171875 -12.296875 C 8.128906 -12.296875 8.96875 -12.132812 9.6875 -11.8125 C 10.414062 -11.488281 11.015625 -11.035156 11.484375 -10.453125 C 11.953125 -9.878906 12.300781 -9.195312 12.53125 -8.40625 C 12.757812 -7.625 12.875 -6.757812 12.875 -5.8125 Z M 7.0625 -11.359375 C 6.382812 -11.359375 5.800781 -11.222656 5.3125 -10.953125 C 4.820312 -10.679688 4.40625 -10.332031 4.0625 -9.90625 C 3.71875 -9.488281 3.445312 -9.007812 3.25 -8.46875 C 3.0625 -7.9375 2.9375 -7.398438 2.875 -6.859375 L 11.09375 -6.859375 C 11.070312 -7.410156 10.96875 -7.957031 10.78125 -8.5 C 10.601562 -9.039062 10.347656 -9.519531 10.015625 -9.9375 C 9.691406 -10.363281 9.28125 -10.707031 8.78125 -10.96875 C 8.28125 -11.226562 7.707031 -11.359375 7.0625 -11.359375 Z M 7.0625 -11.359375 "/></g></g></g><g fill="#03608d" fill-opacity="1"><g transform="translate(296.966829, 178.244374)"><g><path d="M 12.875 -1.875 C 12.875 -1.71875 12.894531 -1.546875 12.9375 -1.359375 C 12.976562 -1.179688 13.039062 -1.015625 13.125 -0.859375 C 13.207031 -0.710938 13.300781 -0.578125 13.40625 -0.453125 C 13.519531 -0.335938 13.648438 -0.28125 13.796875 -0.28125 L 13.796875 0 L 10.078125 0 L 10.078125 -0.28125 C 10.210938 -0.28125 10.335938 -0.335938 10.453125 -0.453125 C 10.566406 -0.578125 10.664062 -0.710938 10.75 -0.859375 C 10.84375 -1.015625 10.90625 -1.179688 10.9375 -1.359375 C 10.976562 -1.546875 11 -1.71875 11 -1.875 L 11 -7.234375 C 11 -7.921875 10.90625 -8.523438 10.71875 -9.046875 C 10.53125 -9.566406 10.269531 -10 9.9375 -10.34375 C 9.613281 -10.6875 9.242188 -10.941406 8.828125 -11.109375 C 8.421875 -11.273438 8.003906 -11.359375 7.578125 -11.359375 C 7.148438 -11.359375 6.726562 -11.269531 6.3125 -11.09375 C 5.90625 -10.914062 5.539062 -10.6875 5.21875 -10.40625 C 4.90625 -10.132812 4.648438 -9.8125 4.453125 -9.4375 C 4.253906 -9.0625 4.15625 -8.671875 4.15625 -8.265625 L 4.15625 -1.875 C 4.15625 -1.71875 4.171875 -1.546875 4.203125 -1.359375 C 4.242188 -1.179688 4.304688 -1.015625 4.390625 -0.859375 C 4.484375 -0.710938 4.582031 -0.578125 4.6875 -0.453125 C 4.789062 -0.335938 4.921875 -0.28125 5.078125 -0.28125 L 5.078125 0 L 1.328125 0 L 1.328125 -0.28125 C 1.460938 -0.28125 1.585938 -0.335938 1.703125 -0.453125 C 1.816406 -0.578125 1.914062 -0.710938 2 -0.859375 C 2.082031 -1.015625 2.144531 -1.179688 2.1875 -1.359375 C 2.226562 -1.546875 2.25 -1.71875 2.25 -1.875 L 2.25 -9.828125 C 2.25 -10.148438 2.195312 -10.457031 2.09375 -10.75 C 2 -11.050781 1.722656 -11.210938 1.265625 -11.234375 L 1.265625 -11.5 L 4.15625 -12.421875 L 4.15625 -10.828125 C 4.28125 -10.984375 4.445312 -11.148438 4.65625 -11.328125 C 4.875 -11.515625 5.128906 -11.6875 5.421875 -11.84375 C 5.722656 -12.007812 6.070312 -12.144531 6.46875 -12.25 C 6.863281 -12.363281 7.328125 -12.421875 7.859375 -12.421875 C 8.765625 -12.421875 9.535156 -12.265625 10.171875 -11.953125 C 10.804688 -11.648438 11.320312 -11.253906 11.71875 -10.765625 C 12.125 -10.273438 12.414062 -9.734375 12.59375 -9.140625 C 12.78125 -8.554688 12.875 -7.988281 12.875 -7.4375 Z M 12.875 -1.875 "/></g></g></g><g fill="#03608d" fill-opacity="1"><g transform="translate(312.290879, 178.244374)"><g><path d="M 1.703125 0 L 1.703125 -0.28125 C 1.859375 -0.28125 1.992188 -0.335938 2.109375 -0.453125 C 2.222656 -0.578125 2.316406 -0.710938 2.390625 -0.859375 C 2.460938 -1.015625 2.519531 -1.179688 2.5625 -1.359375 C 2.601562 -1.546875 2.625 -1.71875 2.625 -1.875 L 2.625 -9.859375 C 2.625 -10.179688 2.570312 -10.488281 2.46875 -10.78125 C 2.375 -11.082031 2.097656 -11.242188 1.640625 -11.265625 L 1.640625 -11.53125 L 4.53125 -12.453125 L 4.53125 -1.875 C 4.53125 -1.71875 4.546875 -1.546875 4.578125 -1.359375 C 4.617188 -1.179688 4.675781 -1.015625 4.75 -0.859375 C 4.832031 -0.710938 4.929688 -0.578125 5.046875 -0.453125 C 5.160156 -0.335938 5.296875 -0.28125 5.453125 -0.28125 L 5.453125 0 Z M 1.84375 -15.21875 C 1.84375 -15.601562 1.972656 -15.925781 2.234375 -16.1875 C 2.492188 -16.457031 2.816406 -16.59375 3.203125 -16.59375 C 3.585938 -16.59375 3.910156 -16.457031 4.171875 -16.1875 C 4.441406 -15.925781 4.578125 -15.601562 4.578125 -15.21875 C 4.578125 -14.832031 4.441406 -14.515625 4.171875 -14.265625 C 3.910156 -14.015625 3.585938 -13.890625 3.203125 -13.890625 C 2.816406 -13.890625 2.492188 -14.015625 2.234375 -14.265625 C 1.972656 -14.515625 1.84375 -14.832031 1.84375 -15.21875 Z M 1.84375 -15.21875 "/></g></g></g><g fill="#03608d" fill-opacity="1"><g transform="translate(319.520833, 178.244374)"><g><path d="M 4.125 -11.125 L 4.125 -4.171875 C 4.125 -3.671875 4.128906 -3.21875 4.140625 -2.8125 C 4.160156 -2.414062 4.207031 -2.082031 4.28125 -1.8125 C 4.363281 -1.539062 4.484375 -1.332031 4.640625 -1.1875 C 4.796875 -1.050781 5.003906 -0.984375 5.265625 -0.984375 C 5.671875 -0.984375 6.050781 -1.171875 6.40625 -1.546875 C 6.757812 -1.929688 6.988281 -2.394531 7.09375 -2.9375 L 7.34375 -2.9375 L 7.34375 -0.828125 C 7.175781 -0.828125 7.035156 -0.769531 6.921875 -0.65625 C 6.765625 -0.53125 6.546875 -0.390625 6.265625 -0.234375 C 5.984375 -0.078125 5.566406 0 5.015625 0 C 4.316406 0 3.773438 -0.132812 3.390625 -0.40625 C 3.015625 -0.675781 2.738281 -1.03125 2.5625 -1.46875 C 2.394531 -1.90625 2.296875 -2.394531 2.265625 -2.9375 C 2.234375 -3.476562 2.21875 -4.023438 2.21875 -4.578125 L 2.21875 -11.125 L 0.609375 -11.125 L 0.609375 -12.09375 L 2.21875 -12.09375 L 2.21875 -14.671875 C 2.21875 -14.992188 2.171875 -15.289062 2.078125 -15.5625 C 1.992188 -15.84375 1.710938 -15.992188 1.234375 -16.015625 L 1.234375 -16.3125 L 4.125 -17.234375 L 4.125 -12.09375 L 7.34375 -12.09375 L 7.34375 -11.125 Z M 4.125 -11.125 "/></g></g></g><g fill="#03608d" fill-opacity="1"><g transform="translate(327.730148, 178.244374)"><g><path d="M 2.875 -5.8125 C 2.957031 -5.144531 3.125 -4.507812 3.375 -3.90625 C 3.625 -3.300781 3.953125 -2.765625 4.359375 -2.296875 C 4.773438 -1.835938 5.28125 -1.46875 5.875 -1.1875 C 6.46875 -0.914062 7.160156 -0.78125 7.953125 -0.78125 C 8.378906 -0.78125 8.828125 -0.84375 9.296875 -0.96875 C 9.765625 -1.09375 10.195312 -1.269531 10.59375 -1.5 C 11 -1.726562 11.359375 -2.007812 11.671875 -2.34375 C 11.992188 -2.6875 12.210938 -3.066406 12.328125 -3.484375 L 12.59375 -3.484375 L 12.59375 -1.328125 C 12.476562 -1.328125 12.347656 -1.285156 12.203125 -1.203125 C 12.054688 -1.128906 11.890625 -1.035156 11.703125 -0.921875 C 11.316406 -0.691406 10.796875 -0.445312 10.140625 -0.1875 C 9.484375 0.0703125 8.617188 0.203125 7.546875 0.203125 C 6.679688 0.203125 5.859375 0.078125 5.078125 -0.171875 C 4.304688 -0.421875 3.617188 -0.804688 3.015625 -1.328125 C 2.421875 -1.847656 1.945312 -2.507812 1.59375 -3.3125 C 1.238281 -4.125 1.0625 -5.082031 1.0625 -6.1875 C 1.0625 -6.90625 1.179688 -7.628906 1.421875 -8.359375 C 1.660156 -9.085938 2.023438 -9.742188 2.515625 -10.328125 C 3.003906 -10.910156 3.632812 -11.382812 4.40625 -11.75 C 5.175781 -12.113281 6.097656 -12.296875 7.171875 -12.296875 C 8.128906 -12.296875 8.96875 -12.132812 9.6875 -11.8125 C 10.414062 -11.488281 11.015625 -11.035156 11.484375 -10.453125 C 11.953125 -9.878906 12.300781 -9.195312 12.53125 -8.40625 C 12.757812 -7.625 12.875 -6.757812 12.875 -5.8125 Z M 7.0625 -11.359375 C 6.382812 -11.359375 5.800781 -11.222656 5.3125 -10.953125 C 4.820312 -10.679688 4.40625 -10.332031 4.0625 -9.90625 C 3.71875 -9.488281 3.445312 -9.007812 3.25 -8.46875 C 3.0625 -7.9375 2.9375 -7.398438 2.875 -6.859375 L 11.09375 -6.859375 C 11.070312 -7.410156 10.96875 -7.957031 10.78125 -8.5 C 10.601562 -9.039062 10.347656 -9.519531 10.015625 -9.9375 C 9.691406 -10.363281 9.28125 -10.707031 8.78125 -10.96875 C 8.28125 -11.226562 7.707031 -11.359375 7.0625 -11.359375 Z M 7.0625 -11.359375 "/></g></g></g><g fill="#03608d" fill-opacity="1"><g transform="translate(341.703155, 178.244374)"><g/></g></g><g fill="#03608d" fill-opacity="1"><g transform="translate(245.972696, 217.994371)"><g><path d="M 1.296875 -0.28125 L 1.4375 -0.28125 C 1.570312 -0.28125 1.695312 -0.335938 1.8125 -0.453125 C 1.925781 -0.578125 2.023438 -0.710938 2.109375 -0.859375 C 2.203125 -1.015625 2.265625 -1.179688 2.296875 -1.359375 C 2.335938 -1.546875 2.359375 -1.71875 2.359375 -1.875 L 2.359375 -17.203125 C 2.359375 -17.335938 2.335938 -17.488281 2.296875 -17.65625 C 2.265625 -17.832031 2.203125 -18 2.109375 -18.15625 C 2.023438 -18.320312 1.921875 -18.457031 1.796875 -18.5625 C 1.671875 -18.675781 1.535156 -18.734375 1.390625 -18.734375 L 1.234375 -18.734375 L 1.234375 -19.015625 L 5.96875 -19.015625 C 7.75 -19.015625 9.144531 -18.617188 10.15625 -17.828125 C 11.164062 -17.046875 11.671875 -16 11.671875 -14.6875 C 11.671875 -14.132812 11.570312 -13.632812 11.375 -13.1875 C 11.1875 -12.75 10.941406 -12.359375 10.640625 -12.015625 C 10.347656 -11.671875 10.023438 -11.378906 9.671875 -11.140625 C 9.328125 -10.898438 9.003906 -10.703125 8.703125 -10.546875 C 9.503906 -10.390625 10.175781 -10.128906 10.71875 -9.765625 C 11.257812 -9.398438 11.695312 -8.984375 12.03125 -8.515625 C 12.363281 -8.046875 12.597656 -7.539062 12.734375 -7 C 12.867188 -6.457031 12.9375 -5.929688 12.9375 -5.421875 C 12.9375 -4.421875 12.753906 -3.578125 12.390625 -2.890625 C 12.023438 -2.210938 11.539062 -1.65625 10.9375 -1.21875 C 10.332031 -0.789062 9.640625 -0.476562 8.859375 -0.28125 C 8.078125 -0.09375 7.273438 0 6.453125 0 L 1.296875 0 Z M 10.984375 -5.25 C 10.828125 -6.726562 10.328125 -7.867188 9.484375 -8.671875 C 8.640625 -9.472656 7.445312 -9.875 5.90625 -9.875 L 4.296875 -9.875 L 4.296875 -0.953125 L 5.96875 -0.953125 C 7.519531 -0.953125 8.742188 -1.300781 9.640625 -2 C 10.535156 -2.695312 10.984375 -3.671875 10.984375 -4.921875 Z M 9.796875 -14.4375 C 9.734375 -15.550781 9.34375 -16.429688 8.625 -17.078125 C 7.90625 -17.734375 6.941406 -18.0625 5.734375 -18.0625 L 4.296875 -18.0625 L 4.296875 -10.796875 L 5.796875 -10.796875 C 6.597656 -10.796875 7.253906 -10.898438 7.765625 -11.109375 C 8.273438 -11.328125 8.679688 -11.601562 8.984375 -11.9375 C 9.296875 -12.28125 9.507812 -12.648438 9.625 -13.046875 C 9.738281 -13.453125 9.796875 -13.847656 9.796875 -14.234375 Z M 9.796875 -14.4375 "/></g></g></g><g fill="#03608d" fill-opacity="1"><g transform="translate(260.05814, 217.994371)"><g><path d="M 8.328125 -10 C 8.097656 -10.382812 7.859375 -10.625 7.609375 -10.71875 C 7.359375 -10.8125 7.066406 -10.859375 6.734375 -10.859375 C 6.523438 -10.859375 6.300781 -10.8125 6.0625 -10.71875 C 5.820312 -10.625 5.585938 -10.5 5.359375 -10.34375 C 5.128906 -10.1875 4.898438 -10.015625 4.671875 -9.828125 C 4.453125 -9.648438 4.269531 -9.484375 4.125 -9.328125 L 4.125 -1.84375 C 4.125 -1.6875 4.140625 -1.519531 4.171875 -1.34375 C 4.210938 -1.175781 4.273438 -1.007812 4.359375 -0.84375 C 4.453125 -0.6875 4.550781 -0.550781 4.65625 -0.4375 C 4.757812 -0.332031 4.890625 -0.28125 5.046875 -0.28125 L 5.046875 0 L 1.296875 0 L 1.296875 -0.28125 C 1.429688 -0.28125 1.554688 -0.332031 1.671875 -0.4375 C 1.785156 -0.550781 1.882812 -0.6875 1.96875 -0.84375 C 2.0625 -1.007812 2.125 -1.175781 2.15625 -1.34375 C 2.195312 -1.519531 2.21875 -1.6875 2.21875 -1.84375 L 2.21875 -9.875 C 2.21875 -10.144531 2.128906 -10.414062 1.953125 -10.6875 C 1.785156 -10.957031 1.535156 -11.128906 1.203125 -11.203125 L 1.203125 -11.4375 L 4.125 -12.296875 L 4.125 -10.578125 C 4.289062 -10.785156 4.46875 -10.988281 4.65625 -11.1875 C 4.851562 -11.394531 5.070312 -11.578125 5.3125 -11.734375 C 5.550781 -11.898438 5.816406 -12.035156 6.109375 -12.140625 C 6.398438 -12.242188 6.734375 -12.296875 7.109375 -12.296875 C 7.378906 -12.296875 7.722656 -12.238281 8.140625 -12.125 C 8.566406 -12.007812 8.914062 -11.882812 9.1875 -11.75 Z M 8.328125 -10 "/></g></g></g><g fill="#03608d" fill-opacity="1"><g transform="translate(269.765293, 217.994371)"><g><path d="M 8.90625 0 L 8.90625 -1.46875 L 8.765625 -1.328125 C 8.273438 -0.847656 7.71875 -0.472656 7.09375 -0.203125 C 6.476562 0.0664062 5.726562 0.203125 4.84375 0.203125 C 4.164062 0.203125 3.585938 0.125 3.109375 -0.03125 C 2.628906 -0.1875 2.234375 -0.398438 1.921875 -0.671875 C 1.617188 -0.953125 1.394531 -1.273438 1.25 -1.640625 C 1.101562 -2.003906 1.03125 -2.390625 1.03125 -2.796875 C 1.03125 -3.453125 1.207031 -4.023438 1.5625 -4.515625 C 1.925781 -5.015625 2.441406 -5.457031 3.109375 -5.84375 C 3.785156 -6.226562 4.609375 -6.578125 5.578125 -6.890625 C 6.546875 -7.210938 7.65625 -7.53125 8.90625 -7.84375 C 8.863281 -8.582031 8.707031 -9.179688 8.4375 -9.640625 C 8.164062 -10.109375 7.847656 -10.472656 7.484375 -10.734375 C 7.117188 -10.992188 6.734375 -11.164062 6.328125 -11.25 C 5.929688 -11.332031 5.585938 -11.375 5.296875 -11.375 C 4.796875 -11.375 4.359375 -11.296875 3.984375 -11.140625 C 3.609375 -10.992188 3.28125 -10.800781 3 -10.5625 C 2.726562 -10.320312 2.492188 -10.0625 2.296875 -9.78125 C 2.109375 -9.5 1.957031 -9.234375 1.84375 -8.984375 L 1.578125 -8.984375 L 1.578125 -11.09375 C 1.734375 -11.113281 1.878906 -11.160156 2.015625 -11.234375 C 2.148438 -11.316406 2.3125 -11.394531 2.5 -11.46875 C 2.789062 -11.582031 3.1875 -11.75 3.6875 -11.96875 C 4.1875 -12.1875 4.890625 -12.296875 5.796875 -12.296875 C 6.847656 -12.296875 7.695312 -12.160156 8.34375 -11.890625 C 9 -11.628906 9.503906 -11.273438 9.859375 -10.828125 C 10.222656 -10.390625 10.460938 -9.882812 10.578125 -9.3125 C 10.691406 -8.75 10.75 -8.171875 10.75 -7.578125 L 10.75 -1.875 C 10.75 -1.488281 10.832031 -1.125 11 -0.78125 C 11.175781 -0.445312 11.410156 -0.28125 11.703125 -0.28125 L 11.703125 0 Z M 8.90625 -2.734375 L 8.90625 -6.859375 L 8.609375 -6.796875 C 8.148438 -6.679688 7.585938 -6.523438 6.921875 -6.328125 C 6.265625 -6.140625 5.640625 -5.890625 5.046875 -5.578125 C 4.453125 -5.273438 3.941406 -4.910156 3.515625 -4.484375 C 3.085938 -4.066406 2.875 -3.582031 2.875 -3.03125 C 2.875 -2.414062 3.125 -1.90625 3.625 -1.5 C 4.125 -1.09375 4.78125 -0.890625 5.59375 -0.890625 C 6.226562 -0.890625 6.785156 -1.03125 7.265625 -1.3125 C 7.742188 -1.59375 8.1875 -1.953125 8.59375 -2.390625 Z M 8.90625 -2.734375 "/></g></g></g><g fill="#03608d" fill-opacity="1"><g transform="translate(282.928996, 217.994371)"><g><path d="M 10.65625 -3.28125 C 10.65625 -2.78125 10.53125 -2.316406 10.28125 -1.890625 C 10.03125 -1.472656 9.6875 -1.101562 9.25 -0.78125 C 8.820312 -0.46875 8.320312 -0.21875 7.75 -0.03125 C 7.175781 0.144531 6.550781 0.234375 5.875 0.234375 C 5.050781 0.234375 4.378906 0.125 3.859375 -0.09375 C 3.335938 -0.320312 2.894531 -0.550781 2.53125 -0.78125 C 2.28125 -0.9375 2.050781 -1.066406 1.84375 -1.171875 C 1.632812 -1.273438 1.40625 -1.328125 1.15625 -1.328125 L 1.15625 -3.515625 L 1.4375 -3.515625 C 1.5 -3.242188 1.664062 -2.945312 1.9375 -2.625 C 2.21875 -2.3125 2.554688 -2.019531 2.953125 -1.75 C 3.347656 -1.488281 3.78125 -1.265625 4.25 -1.078125 C 4.71875 -0.898438 5.191406 -0.8125 5.671875 -0.8125 C 6.015625 -0.8125 6.367188 -0.847656 6.734375 -0.921875 C 7.109375 -0.992188 7.441406 -1.117188 7.734375 -1.296875 C 8.035156 -1.472656 8.285156 -1.6875 8.484375 -1.9375 C 8.679688 -2.195312 8.78125 -2.507812 8.78125 -2.875 C 8.78125 -3.238281 8.675781 -3.554688 8.46875 -3.828125 C 8.257812 -4.097656 7.988281 -4.332031 7.65625 -4.53125 C 7.332031 -4.738281 6.957031 -4.914062 6.53125 -5.0625 C 6.113281 -5.21875 5.691406 -5.363281 5.265625 -5.5 C 4.773438 -5.65625 4.273438 -5.828125 3.765625 -6.015625 C 3.253906 -6.210938 2.796875 -6.441406 2.390625 -6.703125 C 1.984375 -6.960938 1.65625 -7.28125 1.40625 -7.65625 C 1.15625 -8.03125 1.03125 -8.472656 1.03125 -8.984375 C 1.03125 -9.429688 1.113281 -9.851562 1.28125 -10.25 C 1.445312 -10.65625 1.71875 -11.003906 2.09375 -11.296875 C 2.46875 -11.597656 2.953125 -11.835938 3.546875 -12.015625 C 4.140625 -12.203125 4.859375 -12.296875 5.703125 -12.296875 C 6.453125 -12.296875 7.03125 -12.234375 7.4375 -12.109375 C 7.851562 -11.984375 8.195312 -11.859375 8.46875 -11.734375 C 8.644531 -11.628906 8.816406 -11.550781 8.984375 -11.5 C 9.160156 -11.457031 9.351562 -11.4375 9.5625 -11.4375 L 9.5625 -9.421875 L 9.328125 -9.421875 C 8.984375 -10.054688 8.457031 -10.535156 7.75 -10.859375 C 7.039062 -11.191406 6.3125 -11.359375 5.5625 -11.359375 C 5.082031 -11.359375 4.664062 -11.296875 4.3125 -11.171875 C 3.96875 -11.046875 3.6875 -10.890625 3.46875 -10.703125 C 3.25 -10.523438 3.085938 -10.316406 2.984375 -10.078125 C 2.878906 -9.847656 2.828125 -9.617188 2.828125 -9.390625 C 2.828125 -9.066406 2.914062 -8.789062 3.09375 -8.5625 C 3.28125 -8.332031 3.53125 -8.128906 3.84375 -7.953125 C 4.164062 -7.773438 4.519531 -7.609375 4.90625 -7.453125 C 5.300781 -7.304688 5.722656 -7.164062 6.171875 -7.03125 C 6.703125 -6.851562 7.238281 -6.664062 7.78125 -6.46875 C 8.320312 -6.269531 8.800781 -6.023438 9.21875 -5.734375 C 9.644531 -5.441406 9.988281 -5.097656 10.25 -4.703125 C 10.519531 -4.316406 10.65625 -3.84375 10.65625 -3.28125 Z M 10.65625 -3.28125 "/></g></g></g><g fill="#03608d" fill-opacity="1"><g transform="translate(294.767691, 217.994371)"><g><path d="M 1.703125 0 L 1.703125 -0.28125 C 1.859375 -0.28125 1.992188 -0.335938 2.109375 -0.453125 C 2.222656 -0.578125 2.316406 -0.710938 2.390625 -0.859375 C 2.460938 -1.015625 2.519531 -1.179688 2.5625 -1.359375 C 2.601562 -1.546875 2.625 -1.71875 2.625 -1.875 L 2.625 -9.859375 C 2.625 -10.179688 2.570312 -10.488281 2.46875 -10.78125 C 2.375 -11.082031 2.097656 -11.242188 1.640625 -11.265625 L 1.640625 -11.53125 L 4.53125 -12.453125 L 4.53125 -1.875 C 4.53125 -1.71875 4.546875 -1.546875 4.578125 -1.359375 C 4.617188 -1.179688 4.675781 -1.015625 4.75 -0.859375 C 4.832031 -0.710938 4.929688 -0.578125 5.046875 -0.453125 C 5.160156 -0.335938 5.296875 -0.28125 5.453125 -0.28125 L 5.453125 0 Z M 1.84375 -15.21875 C 1.84375 -15.601562 1.972656 -15.925781 2.234375 -16.1875 C 2.492188 -16.457031 2.816406 -16.59375 3.203125 -16.59375 C 3.585938 -16.59375 3.910156 -16.457031 4.171875 -16.1875 C 4.441406 -15.925781 4.578125 -15.601562 4.578125 -15.21875 C 4.578125 -14.832031 4.441406 -14.515625 4.171875 -14.265625 C 3.910156 -14.015625 3.585938 -13.890625 3.203125 -13.890625 C 2.816406 -13.890625 2.492188 -14.015625 2.234375 -14.265625 C 1.972656 -14.515625 1.84375 -14.832031 1.84375 -15.21875 Z M 1.84375 -15.21875 "/></g></g></g><g fill="#03608d" fill-opacity="1"><g transform="translate(301.997644, 217.994371)"><g><path d="M 1.40625 0 L 1.40625 -0.28125 C 1.5625 -0.28125 1.695312 -0.335938 1.8125 -0.453125 C 1.925781 -0.578125 2.023438 -0.710938 2.109375 -0.859375 C 2.203125 -1.015625 2.265625 -1.179688 2.296875 -1.359375 C 2.335938 -1.546875 2.359375 -1.71875 2.359375 -1.875 L 2.359375 -16.625 C 2.359375 -16.945312 2.3125 -17.253906 2.21875 -17.546875 C 2.125 -17.835938 1.835938 -17.988281 1.359375 -18 L 1.359375 -18.296875 L 4.265625 -19.1875 L 4.265625 -1.875 C 4.265625 -1.71875 4.28125 -1.546875 4.3125 -1.359375 C 4.351562 -1.179688 4.414062 -1.015625 4.5 -0.859375 C 4.59375 -0.710938 4.691406 -0.578125 4.796875 -0.453125 C 4.898438 -0.335938 5.03125 -0.28125 5.1875 -0.28125 L 5.1875 0 Z M 1.40625 0 "/></g></g></g></svg>