<svg xmlns="http://www.w3.org/2000/svg" xmlns:xlink="http://www.w3.org/1999/xlink" width="500" zoomAndPan="magnify" viewBox="0 0 375 374.999991" height="500" preserveAspectRatio="xMidYMid meet" version="1.0"><defs><g/><clipPath id="e3ac59b20f"><path d="M 0 37.5 L 375 37.5 L 375 226.5 L 0 226.5 Z M 0 37.5 " clip-rule="nonzero"/></clipPath></defs><g clip-path="url(#e3ac59b20f)"><path fill="#e0b15e" d="M 189.164062 197.886719 L 204.007812 81.195312 C 204.160156 80.285156 204.992188 79.601562 205.902344 79.753906 C 206.808594 79.90625 207.492188 80.738281 207.339844 81.648438 L 192.269531 200.007812 L 233.84375 45.074219 C 234.070312 44.164062 234.980469 43.632812 235.886719 43.859375 C 236.796875 44.089844 237.328125 44.996094 237.101562 45.90625 L 195.980469 199.25 L 240.507812 90.433594 C 240.886719 89.597656 241.871094 89.144531 242.703125 89.523438 C 243.535156 89.902344 243.992188 90.886719 243.613281 91.71875 L 198.40625 202.128906 L 278.597656 63.171875 C 279.050781 62.339844 280.113281 62.109375 280.945312 62.566406 C 281.777344 63.019531 282.003906 64.078125 281.550781 64.914062 L 202.34375 202.355469 L 273.523438 108.757812 C 274.054688 108 275.191406 107.847656 275.871094 108.453125 C 276.628906 108.984375 276.78125 110.121094 276.175781 110.800781 L 203.933594 205.761719 L 317.371094 92.324219 C 318.050781 91.644531 319.109375 91.644531 319.792969 92.324219 C 320.472656 93.007812 320.472656 94.066406 319.792969 94.75 L 207.644531 206.972656 L 300.632812 134.957031 C 301.390625 134.351562 302.453125 134.503906 302.980469 135.261719 C 303.585938 136.019531 303.4375 137.078125 302.679688 137.609375 L 208.324219 210.609375 L 347.28125 130.414062 C 348.113281 129.960938 349.097656 130.1875 349.628906 131.019531 C 350.082031 131.855469 349.855469 132.839844 349.023438 133.367188 L 211.503906 212.804688 L 319.945312 167.371094 C 320.777344 166.992188 321.835938 167.445312 322.140625 168.277344 C 322.519531 169.109375 322.0625 170.171875 321.230469 170.472656 L 211.203125 216.589844 L 366.210938 175.09375 C 367.121094 174.867188 368.03125 175.394531 368.257812 176.304688 C 368.484375 177.214844 367.953125 178.121094 367.046875 178.347656 L 213.699219 219.46875 L 330.242188 203.640625 C 331.152344 203.492188 332.058594 204.171875 332.136719 205.082031 C 332.289062 205.988281 331.605469 206.898438 330.695312 206.972656 L 212.488281 223.027344 L 373.027344 223.027344 C 373.9375 223.027344 374.695312 223.785156 374.695312 224.695312 C 374.695312 225.601562 373.9375 226.359375 373.027344 226.359375 L 1.972656 226.359375 C 1.0625 226.359375 0.304688 225.601562 0.304688 224.695312 C 0.304688 223.785156 1.0625 223.027344 1.972656 223.027344 L 160.769531 223.027344 L 44.074219 208.109375 C 43.167969 207.957031 42.484375 207.125 42.636719 206.214844 C 42.789062 205.308594 43.621094 204.625 44.53125 204.777344 L 162.890625 219.847656 L 7.878906 178.273438 C 6.96875 178.046875 6.441406 177.136719 6.667969 176.230469 C 6.894531 175.320312 7.804688 174.789062 8.710938 175.015625 L 162.054688 216.136719 L 53.238281 171.535156 C 52.40625 171.15625 51.953125 170.171875 52.328125 169.339844 C 52.707031 168.503906 53.691406 168.050781 54.527344 168.429688 L 164.933594 213.636719 L 25.976562 133.367188 C 25.144531 132.914062 24.917969 131.855469 25.371094 131.019531 C 25.824219 130.1875 26.886719 129.960938 27.71875 130.414062 L 165.238281 209.777344 L 71.640625 138.59375 C 70.882812 138.0625 70.730469 136.925781 71.335938 136.246094 C 71.867188 135.488281 73.003906 135.335938 73.683594 135.941406 L 168.570312 208.109375 L 55.132812 94.671875 C 54.449219 93.992188 54.449219 92.929688 55.132812 92.25 C 55.8125 91.566406 56.875 91.566406 57.554688 92.25 L 169.855469 204.550781 L 97.839844 111.558594 C 97.234375 110.800781 97.386719 109.742188 98.144531 109.210938 C 98.902344 108.605469 99.960938 108.757812 100.492188 109.515625 L 173.492188 203.867188 L 93.296875 64.835938 C 92.84375 64.003906 93.070312 63.019531 93.902344 62.488281 C 94.734375 62.035156 95.722656 62.261719 96.25 63.09375 L 175.609375 200.613281 L 130.175781 92.171875 C 129.796875 91.339844 130.25 90.28125 131.085938 89.976562 C 131.917969 89.597656 132.976562 90.054688 133.28125 90.886719 L 179.398438 200.914062 L 137.898438 45.90625 C 137.671875 44.996094 138.203125 44.089844 139.113281 43.859375 C 140.019531 43.632812 140.929688 44.164062 141.15625 45.074219 L 182.199219 198.417969 L 166.371094 81.875 C 166.222656 80.964844 166.902344 80.058594 167.8125 79.980469 C 168.71875 79.832031 169.628906 80.511719 169.703125 81.421875 L 185.757812 199.628906 L 185.757812 39.164062 C 185.757812 38.257812 186.515625 37.5 187.425781 37.5 C 188.332031 37.5 189.089844 38.257812 189.089844 39.164062 L 189.089844 197.886719 Z M 189.164062 197.886719 " fill-opacity="1" fill-rule="evenodd"/></g><g fill="#ffffff" fill-opacity="1"><g transform="translate(48.457033, 260.732899)"><g><path d="M 17.234375 -0.390625 L 17.421875 -0.390625 C 17.609375 -0.390625 17.78125 -0.457031 17.9375 -0.59375 C 18.09375 -0.738281 18.226562 -0.921875 18.34375 -1.140625 C 18.457031 -1.359375 18.539062 -1.59375 18.59375 -1.84375 C 18.644531 -2.09375 18.671875 -2.316406 18.671875 -2.515625 L 18.671875 -13.078125 L 6.25 -13.078125 L 6.25 -2.515625 C 6.25 -2.316406 6.273438 -2.09375 6.328125 -1.84375 C 6.378906 -1.59375 6.457031 -1.363281 6.5625 -1.15625 C 6.664062 -0.957031 6.785156 -0.78125 6.921875 -0.625 C 7.066406 -0.46875 7.242188 -0.390625 7.453125 -0.390625 L 7.640625 -0.390625 L 7.640625 0 L 2.21875 0 L 2.21875 -0.390625 L 2.40625 -0.390625 C 2.582031 -0.390625 2.75 -0.457031 2.90625 -0.59375 C 3.0625 -0.738281 3.195312 -0.921875 3.3125 -1.140625 C 3.4375 -1.359375 3.519531 -1.59375 3.5625 -1.84375 C 3.613281 -2.09375 3.640625 -2.316406 3.640625 -2.515625 L 3.640625 -23.203125 C 3.640625 -23.390625 3.613281 -23.597656 3.5625 -23.828125 C 3.519531 -24.066406 3.445312 -24.285156 3.34375 -24.484375 C 3.238281 -24.691406 3.109375 -24.867188 2.953125 -25.015625 C 2.796875 -25.160156 2.613281 -25.234375 2.40625 -25.234375 L 2.21875 -25.234375 L 2.21875 -25.609375 L 7.640625 -25.609375 L 7.640625 -25.234375 L 7.453125 -25.234375 C 7.242188 -25.234375 7.0625 -25.160156 6.90625 -25.015625 C 6.75 -24.867188 6.625 -24.691406 6.53125 -24.484375 C 6.445312 -24.285156 6.378906 -24.066406 6.328125 -23.828125 C 6.273438 -23.597656 6.25 -23.390625 6.25 -23.203125 L 6.25 -14.4375 L 18.671875 -14.4375 L 18.671875 -23.203125 C 18.671875 -23.390625 18.644531 -23.597656 18.59375 -23.828125 C 18.539062 -24.066406 18.460938 -24.285156 18.359375 -24.484375 C 18.253906 -24.691406 18.125 -24.867188 17.96875 -25.015625 C 17.8125 -25.160156 17.628906 -25.234375 17.421875 -25.234375 L 17.234375 -25.234375 L 17.234375 -25.609375 L 22.671875 -25.609375 L 22.671875 -25.234375 L 22.46875 -25.234375 C 22.257812 -25.234375 22.078125 -25.160156 21.921875 -25.015625 C 21.773438 -24.867188 21.65625 -24.691406 21.5625 -24.484375 C 21.46875 -24.285156 21.394531 -24.066406 21.34375 -23.828125 C 21.289062 -23.597656 21.265625 -23.390625 21.265625 -23.203125 L 21.265625 -2.515625 C 21.265625 -2.316406 21.296875 -2.09375 21.359375 -1.84375 C 21.429688 -1.59375 21.519531 -1.363281 21.625 -1.15625 C 21.726562 -0.957031 21.847656 -0.78125 21.984375 -0.625 C 22.128906 -0.46875 22.289062 -0.390625 22.46875 -0.390625 L 22.671875 -0.390625 L 22.671875 0 L 17.234375 0 Z M 17.234375 -0.390625 "/></g></g></g><g fill="#ffffff" fill-opacity="1"><g transform="translate(72.591156, 260.732899)"><g><path d="M 2.296875 0 L 2.296875 -0.390625 C 2.492188 -0.390625 2.671875 -0.46875 2.828125 -0.625 C 2.984375 -0.78125 3.113281 -0.957031 3.21875 -1.15625 C 3.320312 -1.363281 3.398438 -1.59375 3.453125 -1.84375 C 3.503906 -2.09375 3.53125 -2.316406 3.53125 -2.515625 L 3.53125 -13.28125 C 3.53125 -13.71875 3.460938 -14.132812 3.328125 -14.53125 C 3.203125 -14.9375 2.832031 -15.148438 2.21875 -15.171875 L 2.21875 -15.53125 L 6.09375 -16.765625 L 6.09375 -2.515625 C 6.09375 -2.316406 6.117188 -2.09375 6.171875 -1.84375 C 6.222656 -1.59375 6.300781 -1.363281 6.40625 -1.15625 C 6.507812 -0.957031 6.640625 -0.78125 6.796875 -0.625 C 6.953125 -0.46875 7.128906 -0.390625 7.328125 -0.390625 L 7.328125 0 Z M 2.484375 -20.5 C 2.484375 -21.007812 2.65625 -21.445312 3 -21.8125 C 3.351562 -22.175781 3.789062 -22.359375 4.3125 -22.359375 C 4.820312 -22.359375 5.257812 -22.175781 5.625 -21.8125 C 5.988281 -21.445312 6.171875 -21.007812 6.171875 -20.5 C 6.171875 -19.976562 5.988281 -19.546875 5.625 -19.203125 C 5.257812 -18.867188 4.820312 -18.703125 4.3125 -18.703125 C 3.789062 -18.703125 3.351562 -18.867188 3 -19.203125 C 2.65625 -19.546875 2.484375 -19.976562 2.484375 -20.5 Z M 2.484375 -20.5 "/></g></g></g><g fill="#ffffff" fill-opacity="1"><g transform="translate(82.330169, 260.732899)"><g><path d="M 14.09375 0 L 14.09375 -1.703125 C 13.644531 -1.210938 13.050781 -0.757812 12.3125 -0.34375 C 11.582031 0.0625 10.660156 0.265625 9.546875 0.265625 C 8.171875 0.265625 6.972656 0.0234375 5.953125 -0.453125 C 4.929688 -0.929688 4.082031 -1.554688 3.40625 -2.328125 C 2.738281 -3.109375 2.242188 -3.992188 1.921875 -4.984375 C 1.597656 -5.984375 1.4375 -7.015625 1.4375 -8.078125 C 1.4375 -9.109375 1.601562 -10.132812 1.9375 -11.15625 C 2.269531 -12.175781 2.773438 -13.085938 3.453125 -13.890625 C 4.128906 -14.691406 4.96875 -15.335938 5.96875 -15.828125 C 6.976562 -16.328125 8.144531 -16.578125 9.46875 -16.578125 C 10.351562 -16.578125 11.21875 -16.414062 12.0625 -16.09375 C 12.914062 -15.769531 13.59375 -15.347656 14.09375 -14.828125 L 14.09375 -22.390625 C 14.09375 -22.828125 14.023438 -23.238281 13.890625 -23.625 C 13.765625 -24.019531 13.390625 -24.226562 12.765625 -24.25 L 12.765625 -24.640625 L 16.65625 -25.84375 L 16.65625 -2.515625 C 16.65625 -2.316406 16.679688 -2.09375 16.734375 -1.84375 C 16.785156 -1.59375 16.859375 -1.363281 16.953125 -1.15625 C 17.054688 -0.957031 17.1875 -0.78125 17.34375 -0.625 C 17.5 -0.46875 17.679688 -0.390625 17.890625 -0.390625 L 17.890625 0 Z M 9.8125 -1.015625 C 10.363281 -1.015625 10.894531 -1.125 11.40625 -1.34375 C 11.925781 -1.5625 12.378906 -1.859375 12.765625 -2.234375 C 13.148438 -2.609375 13.46875 -3.046875 13.71875 -3.546875 C 13.96875 -4.054688 14.09375 -4.609375 14.09375 -5.203125 L 14.09375 -10.515625 C 14.09375 -11.242188 13.9375 -11.894531 13.625 -12.46875 C 13.3125 -13.050781 12.921875 -13.550781 12.453125 -13.96875 C 11.992188 -14.382812 11.484375 -14.703125 10.921875 -14.921875 C 10.367188 -15.140625 9.832031 -15.25 9.3125 -15.25 C 8.457031 -15.25 7.691406 -15.046875 7.015625 -14.640625 C 6.347656 -14.242188 5.78125 -13.726562 5.3125 -13.09375 C 4.851562 -12.457031 4.503906 -11.742188 4.265625 -10.953125 C 4.035156 -10.171875 3.921875 -9.390625 3.921875 -8.609375 C 3.921875 -7.710938 4.050781 -6.816406 4.3125 -5.921875 C 4.570312 -5.023438 4.953125 -4.21875 5.453125 -3.5 C 5.953125 -2.789062 6.566406 -2.203125 7.296875 -1.734375 C 8.023438 -1.273438 8.863281 -1.035156 9.8125 -1.015625 Z M 9.8125 -1.015625 "/></g></g></g><g fill="#ffffff" fill-opacity="1"><g transform="translate(102.23499, 260.732899)"><g><path d="M 11.21875 -13.46875 C 10.90625 -13.988281 10.578125 -14.3125 10.234375 -14.4375 C 9.898438 -14.5625 9.515625 -14.625 9.078125 -14.625 C 8.796875 -14.625 8.492188 -14.5625 8.171875 -14.4375 C 7.847656 -14.3125 7.53125 -14.144531 7.21875 -13.9375 C 6.90625 -13.726562 6.597656 -13.5 6.296875 -13.25 C 6.003906 -13.007812 5.753906 -12.785156 5.546875 -12.578125 L 5.546875 -2.484375 C 5.546875 -2.273438 5.570312 -2.050781 5.625 -1.8125 C 5.675781 -1.582031 5.757812 -1.359375 5.875 -1.140625 C 6 -0.921875 6.128906 -0.738281 6.265625 -0.59375 C 6.410156 -0.457031 6.585938 -0.390625 6.796875 -0.390625 L 6.796875 0 L 1.75 0 L 1.75 -0.390625 C 1.925781 -0.390625 2.09375 -0.457031 2.25 -0.59375 C 2.40625 -0.738281 2.539062 -0.921875 2.65625 -1.140625 C 2.769531 -1.359375 2.851562 -1.582031 2.90625 -1.8125 C 2.957031 -2.050781 2.984375 -2.273438 2.984375 -2.484375 L 2.984375 -13.3125 C 2.984375 -13.675781 2.867188 -14.035156 2.640625 -14.390625 C 2.410156 -14.753906 2.070312 -14.988281 1.625 -15.09375 L 1.625 -15.40625 L 5.546875 -16.578125 L 5.546875 -14.25 C 5.785156 -14.53125 6.03125 -14.804688 6.28125 -15.078125 C 6.539062 -15.347656 6.832031 -15.59375 7.15625 -15.8125 C 7.476562 -16.03125 7.832031 -16.210938 8.21875 -16.359375 C 8.613281 -16.503906 9.070312 -16.578125 9.59375 -16.578125 C 9.945312 -16.578125 10.410156 -16.5 10.984375 -16.34375 C 11.554688 -16.1875 12.019531 -16.015625 12.375 -15.828125 Z M 11.21875 -13.46875 "/></g></g></g><g fill="#ffffff" fill-opacity="1"><g transform="translate(115.310871, 260.732899)"><g><path d="M 12 0 L 12 -1.984375 L 11.796875 -1.78125 C 11.148438 -1.132812 10.40625 -0.628906 9.5625 -0.265625 C 8.726562 0.0859375 7.710938 0.265625 6.515625 0.265625 C 5.609375 0.265625 4.832031 0.164062 4.1875 -0.03125 C 3.539062 -0.238281 3.007812 -0.53125 2.59375 -0.90625 C 2.1875 -1.28125 1.882812 -1.710938 1.6875 -2.203125 C 1.488281 -2.703125 1.390625 -3.222656 1.390625 -3.765625 C 1.390625 -4.640625 1.628906 -5.414062 2.109375 -6.09375 C 2.585938 -6.769531 3.28125 -7.363281 4.1875 -7.875 C 5.09375 -8.394531 6.195312 -8.867188 7.5 -9.296875 C 8.8125 -9.722656 10.3125 -10.144531 12 -10.5625 C 11.945312 -11.570312 11.738281 -12.382812 11.375 -13 C 11.007812 -13.625 10.582031 -14.109375 10.09375 -14.453125 C 9.601562 -14.804688 9.082031 -15.039062 8.53125 -15.15625 C 7.988281 -15.269531 7.523438 -15.328125 7.140625 -15.328125 C 6.460938 -15.328125 5.875 -15.222656 5.375 -15.015625 C 4.875 -14.804688 4.4375 -14.539062 4.0625 -14.21875 C 3.6875 -13.894531 3.367188 -13.546875 3.109375 -13.171875 C 2.847656 -12.796875 2.640625 -12.441406 2.484375 -12.109375 L 2.140625 -12.109375 L 2.140625 -14.9375 C 2.335938 -14.96875 2.523438 -15.035156 2.703125 -15.140625 C 2.890625 -15.242188 3.113281 -15.347656 3.375 -15.453125 C 3.757812 -15.609375 4.289062 -15.832031 4.96875 -16.125 C 5.644531 -16.425781 6.585938 -16.578125 7.796875 -16.578125 C 9.222656 -16.578125 10.375 -16.394531 11.25 -16.03125 C 12.132812 -15.664062 12.816406 -15.1875 13.296875 -14.59375 C 13.773438 -14 14.09375 -13.316406 14.25 -12.546875 C 14.40625 -11.785156 14.484375 -11.003906 14.484375 -10.203125 L 14.484375 -2.515625 C 14.484375 -2.003906 14.597656 -1.519531 14.828125 -1.0625 C 15.054688 -0.613281 15.367188 -0.390625 15.765625 -0.390625 L 15.765625 0 Z M 12 -3.6875 L 12 -9.234375 L 11.609375 -9.15625 C 10.984375 -9 10.222656 -8.789062 9.328125 -8.53125 C 8.441406 -8.28125 7.597656 -7.945312 6.796875 -7.53125 C 5.992188 -7.113281 5.304688 -6.617188 4.734375 -6.046875 C 4.160156 -5.484375 3.875 -4.828125 3.875 -4.078125 C 3.875 -3.242188 4.210938 -2.554688 4.890625 -2.015625 C 5.566406 -1.472656 6.445312 -1.203125 7.53125 -1.203125 C 8.382812 -1.203125 9.132812 -1.390625 9.78125 -1.765625 C 10.425781 -2.140625 11.019531 -2.625 11.5625 -3.21875 Z M 12 -3.6875 "/></g></g></g><g fill="#ffffff" fill-opacity="1"><g transform="translate(133.042849, 260.732899)"><g><path d="M 14.09375 0 L 14.09375 -1.703125 C 13.644531 -1.210938 13.050781 -0.757812 12.3125 -0.34375 C 11.582031 0.0625 10.660156 0.265625 9.546875 0.265625 C 8.171875 0.265625 6.972656 0.0234375 5.953125 -0.453125 C 4.929688 -0.929688 4.082031 -1.554688 3.40625 -2.328125 C 2.738281 -3.109375 2.242188 -3.992188 1.921875 -4.984375 C 1.597656 -5.984375 1.4375 -7.015625 1.4375 -8.078125 C 1.4375 -9.109375 1.601562 -10.132812 1.9375 -11.15625 C 2.269531 -12.175781 2.773438 -13.085938 3.453125 -13.890625 C 4.128906 -14.691406 4.96875 -15.335938 5.96875 -15.828125 C 6.976562 -16.328125 8.144531 -16.578125 9.46875 -16.578125 C 10.351562 -16.578125 11.21875 -16.414062 12.0625 -16.09375 C 12.914062 -15.769531 13.59375 -15.347656 14.09375 -14.828125 L 14.09375 -22.390625 C 14.09375 -22.828125 14.023438 -23.238281 13.890625 -23.625 C 13.765625 -24.019531 13.390625 -24.226562 12.765625 -24.25 L 12.765625 -24.640625 L 16.65625 -25.84375 L 16.65625 -2.515625 C 16.65625 -2.316406 16.679688 -2.09375 16.734375 -1.84375 C 16.785156 -1.59375 16.859375 -1.363281 16.953125 -1.15625 C 17.054688 -0.957031 17.1875 -0.78125 17.34375 -0.625 C 17.5 -0.46875 17.679688 -0.390625 17.890625 -0.390625 L 17.890625 0 Z M 9.8125 -1.015625 C 10.363281 -1.015625 10.894531 -1.125 11.40625 -1.34375 C 11.925781 -1.5625 12.378906 -1.859375 12.765625 -2.234375 C 13.148438 -2.609375 13.46875 -3.046875 13.71875 -3.546875 C 13.96875 -4.054688 14.09375 -4.609375 14.09375 -5.203125 L 14.09375 -10.515625 C 14.09375 -11.242188 13.9375 -11.894531 13.625 -12.46875 C 13.3125 -13.050781 12.921875 -13.550781 12.453125 -13.96875 C 11.992188 -14.382812 11.484375 -14.703125 10.921875 -14.921875 C 10.367188 -15.140625 9.832031 -15.25 9.3125 -15.25 C 8.457031 -15.25 7.691406 -15.046875 7.015625 -14.640625 C 6.347656 -14.242188 5.78125 -13.726562 5.3125 -13.09375 C 4.851562 -12.457031 4.503906 -11.742188 4.265625 -10.953125 C 4.035156 -10.171875 3.921875 -9.390625 3.921875 -8.609375 C 3.921875 -7.710938 4.050781 -6.816406 4.3125 -5.921875 C 4.570312 -5.023438 4.953125 -4.21875 5.453125 -3.5 C 5.953125 -2.789062 6.566406 -2.203125 7.296875 -1.734375 C 8.023438 -1.273438 8.863281 -1.035156 9.8125 -1.015625 Z M 9.8125 -1.015625 "/></g></g></g><g fill="#ffffff" fill-opacity="1"><g transform="translate(152.947671, 260.732899)"><g><path d="M 3.875 -7.84375 C 3.976562 -6.9375 4.195312 -6.070312 4.53125 -5.25 C 4.875 -4.4375 5.320312 -3.71875 5.875 -3.09375 C 6.4375 -2.476562 7.117188 -1.984375 7.921875 -1.609375 C 8.722656 -1.234375 9.65625 -1.046875 10.71875 -1.046875 C 11.28125 -1.046875 11.878906 -1.128906 12.515625 -1.296875 C 13.148438 -1.460938 13.738281 -1.703125 14.28125 -2.015625 C 14.820312 -2.328125 15.304688 -2.707031 15.734375 -3.15625 C 16.160156 -3.613281 16.453125 -4.128906 16.609375 -4.703125 L 16.96875 -4.703125 L 16.96875 -1.78125 C 16.8125 -1.78125 16.632812 -1.726562 16.4375 -1.625 C 16.238281 -1.519531 16.015625 -1.390625 15.765625 -1.234375 C 15.242188 -0.929688 14.539062 -0.601562 13.65625 -0.25 C 12.78125 0.09375 11.617188 0.265625 10.171875 0.265625 C 9.003906 0.265625 7.894531 0.0976562 6.84375 -0.234375 C 5.800781 -0.566406 4.878906 -1.082031 4.078125 -1.78125 C 3.273438 -2.476562 2.632812 -3.367188 2.15625 -4.453125 C 1.675781 -5.546875 1.4375 -6.84375 1.4375 -8.34375 C 1.4375 -9.300781 1.597656 -10.269531 1.921875 -11.25 C 2.242188 -12.238281 2.734375 -13.125 3.390625 -13.90625 C 4.054688 -14.695312 4.90625 -15.335938 5.9375 -15.828125 C 6.96875 -16.328125 8.210938 -16.578125 9.671875 -16.578125 C 10.960938 -16.578125 12.09375 -16.351562 13.0625 -15.90625 C 14.03125 -15.46875 14.832031 -14.859375 15.46875 -14.078125 C 16.101562 -13.304688 16.570312 -12.390625 16.875 -11.328125 C 17.1875 -10.265625 17.34375 -9.101562 17.34375 -7.84375 Z M 9.515625 -15.296875 C 8.609375 -15.296875 7.820312 -15.113281 7.15625 -14.75 C 6.5 -14.382812 5.9375 -13.914062 5.46875 -13.34375 C 5.007812 -12.78125 4.648438 -12.132812 4.390625 -11.40625 C 4.128906 -10.6875 3.957031 -9.960938 3.875 -9.234375 L 14.9375 -9.234375 C 14.914062 -9.984375 14.78125 -10.71875 14.53125 -11.4375 C 14.289062 -12.164062 13.945312 -12.816406 13.5 -13.390625 C 13.0625 -13.960938 12.503906 -14.421875 11.828125 -14.765625 C 11.160156 -15.117188 10.390625 -15.296875 9.515625 -15.296875 Z M 9.515625 -15.296875 "/></g></g></g><g fill="#ffffff" fill-opacity="1"><g transform="translate(171.766071, 260.732899)"><g><path d="M 17.34375 -2.515625 C 17.34375 -2.316406 17.367188 -2.09375 17.421875 -1.84375 C 17.472656 -1.59375 17.554688 -1.363281 17.671875 -1.15625 C 17.796875 -0.957031 17.925781 -0.78125 18.0625 -0.625 C 18.207031 -0.46875 18.382812 -0.390625 18.59375 -0.390625 L 18.59375 0 L 13.578125 0 L 13.578125 -0.390625 C 13.765625 -0.390625 13.9375 -0.46875 14.09375 -0.625 C 14.25 -0.78125 14.382812 -0.957031 14.5 -1.15625 C 14.613281 -1.363281 14.695312 -1.59375 14.75 -1.84375 C 14.800781 -2.09375 14.828125 -2.316406 14.828125 -2.515625 L 14.828125 -9.734375 C 14.828125 -10.671875 14.695312 -11.488281 14.4375 -12.1875 C 14.175781 -12.882812 13.828125 -13.460938 13.390625 -13.921875 C 12.953125 -14.390625 12.453125 -14.734375 11.890625 -14.953125 C 11.335938 -15.179688 10.773438 -15.296875 10.203125 -15.296875 C 9.640625 -15.296875 9.078125 -15.175781 8.515625 -14.9375 C 7.960938 -14.707031 7.472656 -14.40625 7.046875 -14.03125 C 6.617188 -13.65625 6.269531 -13.210938 6 -12.703125 C 5.726562 -12.203125 5.59375 -11.679688 5.59375 -11.140625 L 5.59375 -2.515625 C 5.59375 -2.316406 5.617188 -2.09375 5.671875 -1.84375 C 5.722656 -1.59375 5.804688 -1.363281 5.921875 -1.15625 C 6.035156 -0.957031 6.160156 -0.78125 6.296875 -0.625 C 6.441406 -0.46875 6.617188 -0.390625 6.828125 -0.390625 L 6.828125 0 L 1.78125 0 L 1.78125 -0.390625 C 1.96875 -0.390625 2.132812 -0.46875 2.28125 -0.625 C 2.4375 -0.78125 2.570312 -0.957031 2.6875 -1.15625 C 2.8125 -1.363281 2.898438 -1.59375 2.953125 -1.84375 C 3.003906 -2.09375 3.03125 -2.316406 3.03125 -2.515625 L 3.03125 -13.234375 C 3.03125 -13.671875 2.960938 -14.085938 2.828125 -14.484375 C 2.703125 -14.890625 2.328125 -15.109375 1.703125 -15.140625 L 1.703125 -15.484375 L 5.59375 -16.734375 L 5.59375 -14.59375 C 5.769531 -14.800781 6 -15.023438 6.28125 -15.265625 C 6.570312 -15.515625 6.914062 -15.75 7.3125 -15.96875 C 7.71875 -16.1875 8.1875 -16.367188 8.71875 -16.515625 C 9.25 -16.660156 9.875 -16.734375 10.59375 -16.734375 C 11.8125 -16.734375 12.847656 -16.523438 13.703125 -16.109375 C 14.554688 -15.691406 15.253906 -15.148438 15.796875 -14.484375 C 16.335938 -13.828125 16.726562 -13.101562 16.96875 -12.3125 C 17.21875 -11.53125 17.34375 -10.765625 17.34375 -10.015625 Z M 17.34375 -2.515625 "/></g></g></g><g fill="#ffffff" fill-opacity="1"><g transform="translate(192.40811, 260.732899)"><g><path d="M 2.296875 0 L 2.296875 -0.390625 C 2.492188 -0.390625 2.671875 -0.46875 2.828125 -0.625 C 2.984375 -0.78125 3.113281 -0.957031 3.21875 -1.15625 C 3.320312 -1.363281 3.398438 -1.59375 3.453125 -1.84375 C 3.503906 -2.09375 3.53125 -2.316406 3.53125 -2.515625 L 3.53125 -13.28125 C 3.53125 -13.71875 3.460938 -14.132812 3.328125 -14.53125 C 3.203125 -14.9375 2.832031 -15.148438 2.21875 -15.171875 L 2.21875 -15.53125 L 6.09375 -16.765625 L 6.09375 -2.515625 C 6.09375 -2.316406 6.117188 -2.09375 6.171875 -1.84375 C 6.222656 -1.59375 6.300781 -1.363281 6.40625 -1.15625 C 6.507812 -0.957031 6.640625 -0.78125 6.796875 -0.625 C 6.953125 -0.46875 7.128906 -0.390625 7.328125 -0.390625 L 7.328125 0 Z M 2.484375 -20.5 C 2.484375 -21.007812 2.65625 -21.445312 3 -21.8125 C 3.351562 -22.175781 3.789062 -22.359375 4.3125 -22.359375 C 4.820312 -22.359375 5.257812 -22.175781 5.625 -21.8125 C 5.988281 -21.445312 6.171875 -21.007812 6.171875 -20.5 C 6.171875 -19.976562 5.988281 -19.546875 5.625 -19.203125 C 5.257812 -18.867188 4.820312 -18.703125 4.3125 -18.703125 C 3.789062 -18.703125 3.351562 -18.867188 3 -19.203125 C 2.65625 -19.546875 2.484375 -19.976562 2.484375 -20.5 Z M 2.484375 -20.5 "/></g></g></g><g fill="#ffffff" fill-opacity="1"><g transform="translate(202.147123, 260.732899)"><g><path d="M 5.546875 -14.984375 L 5.546875 -5.625 C 5.546875 -4.957031 5.554688 -4.347656 5.578125 -3.796875 C 5.609375 -3.253906 5.675781 -2.800781 5.78125 -2.4375 C 5.882812 -2.082031 6.039062 -1.804688 6.25 -1.609375 C 6.457031 -1.410156 6.742188 -1.3125 7.109375 -1.3125 C 7.648438 -1.3125 8.160156 -1.570312 8.640625 -2.09375 C 9.117188 -2.613281 9.421875 -3.234375 9.546875 -3.953125 L 9.890625 -3.953125 L 9.890625 -1.125 C 9.660156 -1.125 9.46875 -1.046875 9.3125 -0.890625 C 9.101562 -0.710938 8.8125 -0.519531 8.4375 -0.3125 C 8.0625 -0.101562 7.5 0 6.75 0 C 5.820312 0 5.097656 -0.179688 4.578125 -0.546875 C 4.054688 -0.910156 3.679688 -1.390625 3.453125 -1.984375 C 3.222656 -2.578125 3.085938 -3.234375 3.046875 -3.953125 C 3.003906 -4.679688 2.984375 -5.421875 2.984375 -6.171875 L 2.984375 -14.984375 L 0.8125 -14.984375 L 0.8125 -16.296875 L 2.984375 -16.296875 L 2.984375 -19.75 C 2.984375 -20.195312 2.925781 -20.609375 2.8125 -20.984375 C 2.695312 -21.359375 2.316406 -21.554688 1.671875 -21.578125 L 1.671875 -21.96875 L 5.546875 -23.203125 L 5.546875 -16.296875 L 9.890625 -16.296875 L 9.890625 -14.984375 Z M 5.546875 -14.984375 "/></g></g></g><g fill="#ffffff" fill-opacity="1"><g transform="translate(213.205365, 260.732899)"><g><path d="M 3.875 -7.84375 C 3.976562 -6.9375 4.195312 -6.070312 4.53125 -5.25 C 4.875 -4.4375 5.320312 -3.71875 5.875 -3.09375 C 6.4375 -2.476562 7.117188 -1.984375 7.921875 -1.609375 C 8.722656 -1.234375 9.65625 -1.046875 10.71875 -1.046875 C 11.28125 -1.046875 11.878906 -1.128906 12.515625 -1.296875 C 13.148438 -1.460938 13.738281 -1.703125 14.28125 -2.015625 C 14.820312 -2.328125 15.304688 -2.707031 15.734375 -3.15625 C 16.160156 -3.613281 16.453125 -4.128906 16.609375 -4.703125 L 16.96875 -4.703125 L 16.96875 -1.78125 C 16.8125 -1.78125 16.632812 -1.726562 16.4375 -1.625 C 16.238281 -1.519531 16.015625 -1.390625 15.765625 -1.234375 C 15.242188 -0.929688 14.539062 -0.601562 13.65625 -0.25 C 12.78125 0.09375 11.617188 0.265625 10.171875 0.265625 C 9.003906 0.265625 7.894531 0.0976562 6.84375 -0.234375 C 5.800781 -0.566406 4.878906 -1.082031 4.078125 -1.78125 C 3.273438 -2.476562 2.632812 -3.367188 2.15625 -4.453125 C 1.675781 -5.546875 1.4375 -6.84375 1.4375 -8.34375 C 1.4375 -9.300781 1.597656 -10.269531 1.921875 -11.25 C 2.242188 -12.238281 2.734375 -13.125 3.390625 -13.90625 C 4.054688 -14.695312 4.90625 -15.335938 5.9375 -15.828125 C 6.96875 -16.328125 8.210938 -16.578125 9.671875 -16.578125 C 10.960938 -16.578125 12.09375 -16.351562 13.0625 -15.90625 C 14.03125 -15.46875 14.832031 -14.859375 15.46875 -14.078125 C 16.101562 -13.304688 16.570312 -12.390625 16.875 -11.328125 C 17.1875 -10.265625 17.34375 -9.101562 17.34375 -7.84375 Z M 9.515625 -15.296875 C 8.609375 -15.296875 7.820312 -15.113281 7.15625 -14.75 C 6.5 -14.382812 5.9375 -13.914062 5.46875 -13.34375 C 5.007812 -12.78125 4.648438 -12.132812 4.390625 -11.40625 C 4.128906 -10.6875 3.957031 -9.960938 3.875 -9.234375 L 14.9375 -9.234375 C 14.914062 -9.984375 14.78125 -10.71875 14.53125 -11.4375 C 14.289062 -12.164062 13.945312 -12.816406 13.5 -13.390625 C 13.0625 -13.960938 12.503906 -14.421875 11.828125 -14.765625 C 11.160156 -15.117188 10.390625 -15.296875 9.515625 -15.296875 Z M 9.515625 -15.296875 "/></g></g></g><g fill="#ffffff" fill-opacity="1"><g transform="translate(232.023765, 260.732899)"><g/></g></g><g fill="#ffffff" fill-opacity="1"><g transform="translate(242.111972, 260.732899)"><g><path d="M 1.75 -0.390625 L 1.9375 -0.390625 C 2.125 -0.390625 2.289062 -0.46875 2.4375 -0.625 C 2.59375 -0.78125 2.726562 -0.957031 2.84375 -1.15625 C 2.96875 -1.363281 3.054688 -1.59375 3.109375 -1.84375 C 3.160156 -2.09375 3.1875 -2.316406 3.1875 -2.515625 L 3.1875 -23.171875 C 3.1875 -23.347656 3.160156 -23.550781 3.109375 -23.78125 C 3.054688 -24.019531 2.96875 -24.25 2.84375 -24.46875 C 2.726562 -24.6875 2.585938 -24.867188 2.421875 -25.015625 C 2.253906 -25.160156 2.066406 -25.234375 1.859375 -25.234375 L 1.671875 -25.234375 L 1.671875 -25.609375 L 8.03125 -25.609375 C 10.4375 -25.609375 12.316406 -25.078125 13.671875 -24.015625 C 15.035156 -22.960938 15.71875 -21.554688 15.71875 -19.796875 C 15.71875 -19.046875 15.585938 -18.375 15.328125 -17.78125 C 15.066406 -17.1875 14.734375 -16.65625 14.328125 -16.1875 C 13.929688 -15.71875 13.5 -15.320312 13.03125 -15 C 12.570312 -14.675781 12.132812 -14.410156 11.71875 -14.203125 C 12.800781 -13.992188 13.707031 -13.644531 14.4375 -13.15625 C 15.164062 -12.664062 15.753906 -12.101562 16.203125 -11.46875 C 16.660156 -10.832031 16.976562 -10.148438 17.15625 -9.421875 C 17.332031 -8.703125 17.421875 -7.992188 17.421875 -7.296875 C 17.421875 -5.953125 17.175781 -4.816406 16.6875 -3.890625 C 16.195312 -2.972656 15.539062 -2.222656 14.71875 -1.640625 C 13.90625 -1.066406 12.972656 -0.648438 11.921875 -0.390625 C 10.878906 -0.128906 9.800781 0 8.6875 0 L 1.75 0 Z M 14.78125 -7.0625 C 14.582031 -9.050781 13.910156 -10.585938 12.765625 -11.671875 C 11.628906 -12.765625 10.023438 -13.3125 7.953125 -13.3125 L 5.78125 -13.3125 L 5.78125 -1.28125 L 8.03125 -1.28125 C 10.125 -1.28125 11.769531 -1.75 12.96875 -2.6875 C 14.175781 -3.632812 14.78125 -4.953125 14.78125 -6.640625 Z M 13.203125 -19.4375 C 13.117188 -20.945312 12.59375 -22.140625 11.625 -23.015625 C 10.65625 -23.890625 9.351562 -24.328125 7.71875 -24.328125 L 5.78125 -24.328125 L 5.78125 -14.546875 L 7.796875 -14.546875 C 8.890625 -14.546875 9.773438 -14.6875 10.453125 -14.96875 C 11.140625 -15.257812 11.691406 -15.628906 12.109375 -16.078125 C 12.523438 -16.535156 12.8125 -17.035156 12.96875 -17.578125 C 13.125 -18.117188 13.203125 -18.648438 13.203125 -19.171875 Z M 13.203125 -19.4375 "/></g></g></g><g fill="#ffffff" fill-opacity="1"><g transform="translate(261.085589, 260.732899)"><g><path d="M 11.21875 -13.46875 C 10.90625 -13.988281 10.578125 -14.3125 10.234375 -14.4375 C 9.898438 -14.5625 9.515625 -14.625 9.078125 -14.625 C 8.796875 -14.625 8.492188 -14.5625 8.171875 -14.4375 C 7.847656 -14.3125 7.53125 -14.144531 7.21875 -13.9375 C 6.90625 -13.726562 6.597656 -13.5 6.296875 -13.25 C 6.003906 -13.007812 5.753906 -12.785156 5.546875 -12.578125 L 5.546875 -2.484375 C 5.546875 -2.273438 5.570312 -2.050781 5.625 -1.8125 C 5.675781 -1.582031 5.757812 -1.359375 5.875 -1.140625 C 6 -0.921875 6.128906 -0.738281 6.265625 -0.59375 C 6.410156 -0.457031 6.585938 -0.390625 6.796875 -0.390625 L 6.796875 0 L 1.75 0 L 1.75 -0.390625 C 1.925781 -0.390625 2.09375 -0.457031 2.25 -0.59375 C 2.40625 -0.738281 2.539062 -0.921875 2.65625 -1.140625 C 2.769531 -1.359375 2.851562 -1.582031 2.90625 -1.8125 C 2.957031 -2.050781 2.984375 -2.273438 2.984375 -2.484375 L 2.984375 -13.3125 C 2.984375 -13.675781 2.867188 -14.035156 2.640625 -14.390625 C 2.410156 -14.753906 2.070312 -14.988281 1.625 -15.09375 L 1.625 -15.40625 L 5.546875 -16.578125 L 5.546875 -14.25 C 5.785156 -14.53125 6.03125 -14.804688 6.28125 -15.078125 C 6.539062 -15.347656 6.832031 -15.59375 7.15625 -15.8125 C 7.476562 -16.03125 7.832031 -16.210938 8.21875 -16.359375 C 8.613281 -16.503906 9.070312 -16.578125 9.59375 -16.578125 C 9.945312 -16.578125 10.410156 -16.5 10.984375 -16.34375 C 11.554688 -16.1875 12.019531 -16.015625 12.375 -15.828125 Z M 11.21875 -13.46875 "/></g></g></g><g fill="#ffffff" fill-opacity="1"><g transform="translate(274.161469, 260.732899)"><g><path d="M 12 0 L 12 -1.984375 L 11.796875 -1.78125 C 11.148438 -1.132812 10.40625 -0.628906 9.5625 -0.265625 C 8.726562 0.0859375 7.710938 0.265625 6.515625 0.265625 C 5.609375 0.265625 4.832031 0.164062 4.1875 -0.03125 C 3.539062 -0.238281 3.007812 -0.53125 2.59375 -0.90625 C 2.1875 -1.28125 1.882812 -1.710938 1.6875 -2.203125 C 1.488281 -2.703125 1.390625 -3.222656 1.390625 -3.765625 C 1.390625 -4.640625 1.628906 -5.414062 2.109375 -6.09375 C 2.585938 -6.769531 3.28125 -7.363281 4.1875 -7.875 C 5.09375 -8.394531 6.195312 -8.867188 7.5 -9.296875 C 8.8125 -9.722656 10.3125 -10.144531 12 -10.5625 C 11.945312 -11.570312 11.738281 -12.382812 11.375 -13 C 11.007812 -13.625 10.582031 -14.109375 10.09375 -14.453125 C 9.601562 -14.804688 9.082031 -15.039062 8.53125 -15.15625 C 7.988281 -15.269531 7.523438 -15.328125 7.140625 -15.328125 C 6.460938 -15.328125 5.875 -15.222656 5.375 -15.015625 C 4.875 -14.804688 4.4375 -14.539062 4.0625 -14.21875 C 3.6875 -13.894531 3.367188 -13.546875 3.109375 -13.171875 C 2.847656 -12.796875 2.640625 -12.441406 2.484375 -12.109375 L 2.140625 -12.109375 L 2.140625 -14.9375 C 2.335938 -14.96875 2.523438 -15.035156 2.703125 -15.140625 C 2.890625 -15.242188 3.113281 -15.347656 3.375 -15.453125 C 3.757812 -15.609375 4.289062 -15.832031 4.96875 -16.125 C 5.644531 -16.425781 6.585938 -16.578125 7.796875 -16.578125 C 9.222656 -16.578125 10.375 -16.394531 11.25 -16.03125 C 12.132812 -15.664062 12.816406 -15.1875 13.296875 -14.59375 C 13.773438 -14 14.09375 -13.316406 14.25 -12.546875 C 14.40625 -11.785156 14.484375 -11.003906 14.484375 -10.203125 L 14.484375 -2.515625 C 14.484375 -2.003906 14.597656 -1.519531 14.828125 -1.0625 C 15.054688 -0.613281 15.367188 -0.390625 15.765625 -0.390625 L 15.765625 0 Z M 12 -3.6875 L 12 -9.234375 L 11.609375 -9.15625 C 10.984375 -9 10.222656 -8.789062 9.328125 -8.53125 C 8.441406 -8.28125 7.597656 -7.945312 6.796875 -7.53125 C 5.992188 -7.113281 5.304688 -6.617188 4.734375 -6.046875 C 4.160156 -5.484375 3.875 -4.828125 3.875 -4.078125 C 3.875 -3.242188 4.210938 -2.554688 4.890625 -2.015625 C 5.566406 -1.472656 6.445312 -1.203125 7.53125 -1.203125 C 8.382812 -1.203125 9.132812 -1.390625 9.78125 -1.765625 C 10.425781 -2.140625 11.019531 -2.625 11.5625 -3.21875 Z M 12 -3.6875 "/></g></g></g><g fill="#ffffff" fill-opacity="1"><g transform="translate(291.893448, 260.732899)"><g><path d="M 14.359375 -4.421875 C 14.359375 -3.753906 14.1875 -3.132812 13.84375 -2.5625 C 13.507812 -1.988281 13.050781 -1.488281 12.46875 -1.0625 C 11.894531 -0.632812 11.21875 -0.296875 10.4375 -0.046875 C 9.664062 0.191406 8.828125 0.3125 7.921875 0.3125 C 6.804688 0.3125 5.898438 0.164062 5.203125 -0.125 C 4.503906 -0.425781 3.910156 -0.734375 3.421875 -1.046875 C 3.078125 -1.253906 2.765625 -1.425781 2.484375 -1.5625 C 2.203125 -1.707031 1.890625 -1.78125 1.546875 -1.78125 L 1.546875 -4.734375 L 1.9375 -4.734375 C 2.019531 -4.367188 2.25 -3.972656 2.625 -3.546875 C 3 -3.117188 3.453125 -2.722656 3.984375 -2.359375 C 4.515625 -2.003906 5.09375 -1.703125 5.71875 -1.453125 C 6.351562 -1.210938 6.992188 -1.09375 7.640625 -1.09375 C 8.109375 -1.09375 8.585938 -1.140625 9.078125 -1.234375 C 9.566406 -1.335938 10.007812 -1.503906 10.40625 -1.734375 C 10.8125 -1.972656 11.148438 -2.265625 11.421875 -2.609375 C 11.703125 -2.960938 11.84375 -3.382812 11.84375 -3.875 C 11.84375 -4.375 11.695312 -4.800781 11.40625 -5.15625 C 11.125 -5.519531 10.765625 -5.835938 10.328125 -6.109375 C 9.890625 -6.378906 9.382812 -6.617188 8.8125 -6.828125 C 8.238281 -7.035156 7.671875 -7.226562 7.109375 -7.40625 C 6.429688 -7.613281 5.75 -7.847656 5.0625 -8.109375 C 4.375 -8.367188 3.757812 -8.671875 3.21875 -9.015625 C 2.675781 -9.367188 2.234375 -9.796875 1.890625 -10.296875 C 1.554688 -10.804688 1.390625 -11.410156 1.390625 -12.109375 C 1.390625 -12.703125 1.5 -13.269531 1.71875 -13.8125 C 1.945312 -14.351562 2.3125 -14.820312 2.8125 -15.21875 C 3.320312 -15.625 3.976562 -15.953125 4.78125 -16.203125 C 5.582031 -16.453125 6.550781 -16.578125 7.6875 -16.578125 C 8.695312 -16.578125 9.476562 -16.488281 10.03125 -16.3125 C 10.59375 -16.144531 11.050781 -15.972656 11.40625 -15.796875 C 11.644531 -15.671875 11.878906 -15.570312 12.109375 -15.5 C 12.335938 -15.4375 12.597656 -15.40625 12.890625 -15.40625 L 12.890625 -12.6875 L 12.578125 -12.6875 C 12.109375 -13.539062 11.394531 -14.1875 10.4375 -14.625 C 9.476562 -15.070312 8.492188 -15.296875 7.484375 -15.296875 C 6.835938 -15.296875 6.28125 -15.207031 5.8125 -15.03125 C 5.351562 -14.863281 4.972656 -14.65625 4.671875 -14.40625 C 4.378906 -14.164062 4.160156 -13.890625 4.015625 -13.578125 C 3.867188 -13.273438 3.796875 -12.96875 3.796875 -12.65625 C 3.796875 -12.21875 3.921875 -11.84375 4.171875 -11.53125 C 4.421875 -11.21875 4.757812 -10.941406 5.1875 -10.703125 C 5.613281 -10.472656 6.085938 -10.253906 6.609375 -10.046875 C 7.140625 -9.835938 7.707031 -9.644531 8.3125 -9.46875 C 9.03125 -9.238281 9.75 -8.988281 10.46875 -8.71875 C 11.195312 -8.445312 11.847656 -8.113281 12.421875 -7.71875 C 12.992188 -7.332031 13.457031 -6.875 13.8125 -6.34375 C 14.175781 -5.8125 14.359375 -5.171875 14.359375 -4.421875 Z M 14.359375 -4.421875 "/></g></g></g><g fill="#ffffff" fill-opacity="1"><g transform="translate(307.840605, 260.732899)"><g><path d="M 2.296875 0 L 2.296875 -0.390625 C 2.492188 -0.390625 2.671875 -0.46875 2.828125 -0.625 C 2.984375 -0.78125 3.113281 -0.957031 3.21875 -1.15625 C 3.320312 -1.363281 3.398438 -1.59375 3.453125 -1.84375 C 3.503906 -2.09375 3.53125 -2.316406 3.53125 -2.515625 L 3.53125 -13.28125 C 3.53125 -13.71875 3.460938 -14.132812 3.328125 -14.53125 C 3.203125 -14.9375 2.832031 -15.148438 2.21875 -15.171875 L 2.21875 -15.53125 L 6.09375 -16.765625 L 6.09375 -2.515625 C 6.09375 -2.316406 6.117188 -2.09375 6.171875 -1.84375 C 6.222656 -1.59375 6.300781 -1.363281 6.40625 -1.15625 C 6.507812 -0.957031 6.640625 -0.78125 6.796875 -0.625 C 6.953125 -0.46875 7.128906 -0.390625 7.328125 -0.390625 L 7.328125 0 Z M 2.484375 -20.5 C 2.484375 -21.007812 2.65625 -21.445312 3 -21.8125 C 3.351562 -22.175781 3.789062 -22.359375 4.3125 -22.359375 C 4.820312 -22.359375 5.257812 -22.175781 5.625 -21.8125 C 5.988281 -21.445312 6.171875 -21.007812 6.171875 -20.5 C 6.171875 -19.976562 5.988281 -19.546875 5.625 -19.203125 C 5.257812 -18.867188 4.820312 -18.703125 4.3125 -18.703125 C 3.789062 -18.703125 3.351562 -18.867188 3 -19.203125 C 2.65625 -19.546875 2.484375 -19.976562 2.484375 -20.5 Z M 2.484375 -20.5 "/></g></g></g><g fill="#ffffff" fill-opacity="1"><g transform="translate(317.579618, 260.732899)"><g><path d="M 1.90625 0 L 1.90625 -0.390625 C 2.113281 -0.390625 2.289062 -0.46875 2.4375 -0.625 C 2.59375 -0.78125 2.726562 -0.957031 2.84375 -1.15625 C 2.96875 -1.363281 3.054688 -1.59375 3.109375 -1.84375 C 3.160156 -2.09375 3.1875 -2.316406 3.1875 -2.515625 L 3.1875 -22.390625 C 3.1875 -22.828125 3.117188 -23.238281 2.984375 -23.625 C 2.859375 -24.019531 2.472656 -24.226562 1.828125 -24.25 L 1.828125 -24.640625 L 5.75 -25.84375 L 5.75 -2.515625 C 5.75 -2.316406 5.773438 -2.09375 5.828125 -1.84375 C 5.878906 -1.59375 5.960938 -1.363281 6.078125 -1.15625 C 6.191406 -0.957031 6.316406 -0.78125 6.453125 -0.625 C 6.597656 -0.46875 6.773438 -0.390625 6.984375 -0.390625 L 6.984375 0 Z M 1.90625 0 "/></g></g></g></svg>